<mxfile host="Electron" modified="2024-07-26T13:06:01.148Z" agent="Mozilla/5.0 (Windows NT 10.0; Win64; x64) AppleWebKit/537.36 (KHTML, like Gecko) draw.io/24.6.4 Chrome/124.0.6367.207 Electron/30.0.6 Safari/537.36" etag="HvedUgTw7Va4MbB4KnLy" version="24.6.4" type="device">
  <diagram name="Page-1" id="8I2EkWNPwm1yBk6Di8xL">
    <mxGraphModel dx="2312" dy="2237" grid="0" gridSize="10" guides="1" tooltips="1" connect="1" arrows="1" fold="1" page="0" pageScale="1" pageWidth="4681" pageHeight="3300" math="0" shadow="0">
      <root>
        <mxCell id="0" />
        <mxCell id="1" parent="0" />
        <mxCell id="2wBlvmX4fhF8oeUSgGbd-302" value="&lt;h5 style=&quot;font-size: 14px;&quot;&gt;KAFKA CLUSTER&lt;/h5&gt;" style="rounded=0;whiteSpace=wrap;html=1;sketch=1;hachureGap=4;jiggle=2;curveFitting=1;fontFamily=Verdana;fontSize=14;verticalAlign=top;" vertex="1" parent="1">
          <mxGeometry x="-213" y="4884" width="1167" height="1188" as="geometry" />
        </mxCell>
        <mxCell id="2wBlvmX4fhF8oeUSgGbd-32" value="&lt;h5 style=&quot;font-size: 14px;&quot;&gt;QUEUE&lt;/h5&gt;" style="rounded=0;whiteSpace=wrap;html=1;sketch=1;hachureGap=4;jiggle=2;curveFitting=1;fontFamily=Verdana;fontSize=14;" vertex="1" parent="1">
          <mxGeometry x="59" y="823" width="260" height="836" as="geometry" />
        </mxCell>
        <mxCell id="2wBlvmX4fhF8oeUSgGbd-3" style="edgeStyle=none;curved=1;rounded=0;sketch=1;hachureGap=4;jiggle=2;curveFitting=1;orthogonalLoop=1;jettySize=auto;html=1;exitX=1;exitY=0.5;exitDx=0;exitDy=0;fontFamily=Architects Daughter;fontSource=https%3A%2F%2Ffonts.googleapis.com%2Fcss%3Ffamily%3DArchitects%2BDaughter;fontSize=16;startSize=14;endArrow=open;endSize=14;sourcePerimeterSpacing=8;targetPerimeterSpacing=8;" edge="1" parent="1" source="2wBlvmX4fhF8oeUSgGbd-1">
          <mxGeometry relative="1" as="geometry">
            <mxPoint x="234" y="14" as="targetPoint" />
          </mxGeometry>
        </mxCell>
        <mxCell id="2wBlvmX4fhF8oeUSgGbd-1" value="&lt;h5 style=&quot;font-size: 14px;&quot;&gt;APP&lt;/h5&gt;" style="rounded=0;whiteSpace=wrap;html=1;sketch=1;hachureGap=4;jiggle=2;curveFitting=1;fontFamily=Verdana;fillColor=#f0a30a;fontColor=#FFFFFF;strokeColor=#BD7000;fontSize=14;" vertex="1" parent="1">
          <mxGeometry x="-138" y="-56" width="155" height="145" as="geometry" />
        </mxCell>
        <mxCell id="2wBlvmX4fhF8oeUSgGbd-2" value="&lt;h5 style=&quot;font-size: 14px;&quot;&gt;APP&lt;/h5&gt;" style="rounded=0;whiteSpace=wrap;html=1;sketch=1;hachureGap=4;jiggle=2;curveFitting=1;fontFamily=Verdana;fillColor=#f0a30a;fontColor=#FFFFFF;strokeColor=#BD7000;fontSize=14;" vertex="1" parent="1">
          <mxGeometry x="234" y="-59" width="155" height="145" as="geometry" />
        </mxCell>
        <mxCell id="2wBlvmX4fhF8oeUSgGbd-4" value="&lt;font face=&quot;Verdana&quot;&gt;Senkron&lt;/font&gt;" style="text;html=1;align=center;verticalAlign=middle;resizable=0;points=[];autosize=1;strokeColor=#005700;fillColor=#008a00;fontSize=20;fontFamily=Architects Daughter;fontSource=https%3A%2F%2Ffonts.googleapis.com%2Fcss%3Ffamily%3DArchitects%2BDaughter;fontColor=#ffffff;" vertex="1" parent="1">
          <mxGeometry x="115.5" y="-129" width="101" height="38" as="geometry" />
        </mxCell>
        <mxCell id="2wBlvmX4fhF8oeUSgGbd-5" value="HTTP" style="text;html=1;align=center;verticalAlign=middle;resizable=0;points=[];autosize=1;strokeColor=none;fillColor=none;fontSize=20;fontFamily=Architects Daughter;fontSource=https%3A%2F%2Ffonts.googleapis.com%2Fcss%3Ffamily%3DArchitects%2BDaughter;" vertex="1" parent="1">
          <mxGeometry x="71" y="34" width="68" height="36" as="geometry" />
        </mxCell>
        <mxCell id="2wBlvmX4fhF8oeUSgGbd-6" value="REST" style="text;html=1;align=center;verticalAlign=middle;resizable=0;points=[];autosize=1;strokeColor=none;fillColor=none;fontSize=20;fontFamily=Architects Daughter;fontSource=https%3A%2F%2Ffonts.googleapis.com%2Fcss%3Ffamily%3DArchitects%2BDaughter;" vertex="1" parent="1">
          <mxGeometry x="74" y="-31" width="69" height="36" as="geometry" />
        </mxCell>
        <mxCell id="2wBlvmX4fhF8oeUSgGbd-14" style="edgeStyle=none;curved=1;rounded=0;sketch=1;hachureGap=4;jiggle=2;curveFitting=1;orthogonalLoop=1;jettySize=auto;html=1;exitX=1;exitY=0.5;exitDx=0;exitDy=0;entryX=0;entryY=0.5;entryDx=0;entryDy=0;fontFamily=Architects Daughter;fontSource=https%3A%2F%2Ffonts.googleapis.com%2Fcss%3Ffamily%3DArchitects%2BDaughter;fontSize=16;startSize=14;endArrow=open;endSize=14;sourcePerimeterSpacing=8;targetPerimeterSpacing=8;" edge="1" parent="1" source="2wBlvmX4fhF8oeUSgGbd-8" target="2wBlvmX4fhF8oeUSgGbd-13">
          <mxGeometry relative="1" as="geometry" />
        </mxCell>
        <mxCell id="2wBlvmX4fhF8oeUSgGbd-8" value="&lt;h5 style=&quot;font-size: 14px;&quot;&gt;APP&lt;/h5&gt;&lt;div&gt;PRODUCER&lt;/div&gt;&lt;div&gt;SERILZATION&lt;/div&gt;" style="rounded=0;whiteSpace=wrap;html=1;sketch=1;hachureGap=4;jiggle=2;curveFitting=1;fontFamily=Verdana;fontSize=14;" vertex="1" parent="1">
          <mxGeometry x="-431" y="416" width="155" height="145" as="geometry" />
        </mxCell>
        <mxCell id="2wBlvmX4fhF8oeUSgGbd-9" value="&lt;h5 style=&quot;font-size: 14px;&quot;&gt;APP&lt;/h5&gt;&lt;div&gt;CONSUMER&lt;/div&gt;&lt;div&gt;DESERILIZATION&lt;/div&gt;" style="rounded=0;whiteSpace=wrap;html=1;sketch=1;hachureGap=4;jiggle=2;curveFitting=1;fontFamily=Verdana;fontSize=14;" vertex="1" parent="1">
          <mxGeometry x="642" y="423.5" width="155" height="145" as="geometry" />
        </mxCell>
        <mxCell id="2wBlvmX4fhF8oeUSgGbd-10" value="&lt;font face=&quot;Verdana&quot;&gt;ASenkron&lt;/font&gt;" style="text;html=1;align=center;verticalAlign=middle;resizable=0;points=[];autosize=1;strokeColor=#005700;fillColor=#008a00;fontSize=20;fontFamily=Architects Daughter;fontSource=https%3A%2F%2Ffonts.googleapis.com%2Fcss%3Ffamily%3DArchitects%2BDaughter;fontColor=#ffffff;" vertex="1" parent="1">
          <mxGeometry x="115.5" y="105" width="115" height="38" as="geometry" />
        </mxCell>
        <mxCell id="2wBlvmX4fhF8oeUSgGbd-15" style="edgeStyle=none;curved=1;rounded=0;sketch=1;hachureGap=4;jiggle=2;curveFitting=1;orthogonalLoop=1;jettySize=auto;html=1;exitX=1;exitY=0.5;exitDx=0;exitDy=0;entryX=0;entryY=0.5;entryDx=0;entryDy=0;fontFamily=Architects Daughter;fontSource=https%3A%2F%2Ffonts.googleapis.com%2Fcss%3Ffamily%3DArchitects%2BDaughter;fontSize=16;startSize=14;endArrow=open;endSize=14;sourcePerimeterSpacing=8;targetPerimeterSpacing=8;" edge="1" parent="1" source="2wBlvmX4fhF8oeUSgGbd-13" target="2wBlvmX4fhF8oeUSgGbd-9">
          <mxGeometry relative="1" as="geometry" />
        </mxCell>
        <mxCell id="2wBlvmX4fhF8oeUSgGbd-13" value="&lt;h5 style=&quot;font-size: 14px;&quot;&gt;QUEUE&lt;/h5&gt;" style="rounded=0;whiteSpace=wrap;html=1;sketch=1;hachureGap=4;jiggle=2;curveFitting=1;fontFamily=Verdana;fontSize=14;" vertex="1" parent="1">
          <mxGeometry x="74" y="301" width="260" height="384" as="geometry" />
        </mxCell>
        <mxCell id="2wBlvmX4fhF8oeUSgGbd-17" value="" style="rounded=0;whiteSpace=wrap;html=1;sketch=1;hachureGap=4;jiggle=2;curveFitting=1;fontFamily=Architects Daughter;fontSource=https%3A%2F%2Ffonts.googleapis.com%2Fcss%3Ffamily%3DArchitects%2BDaughter;" vertex="1" parent="1">
          <mxGeometry x="98.5" y="348" width="211" height="78" as="geometry" />
        </mxCell>
        <mxCell id="2wBlvmX4fhF8oeUSgGbd-16" value="&lt;h5 style=&quot;font-size: 14px;&quot;&gt;MSG&lt;/h5&gt;" style="rounded=0;whiteSpace=wrap;html=1;sketch=1;hachureGap=4;jiggle=2;curveFitting=1;fontFamily=Verdana;fontSize=14;fillColor=#6a00ff;fontColor=#ffffff;strokeColor=#3700CC;" vertex="1" parent="1">
          <mxGeometry x="115.5" y="359" width="33" height="48" as="geometry" />
        </mxCell>
        <mxCell id="2wBlvmX4fhF8oeUSgGbd-18" value="&lt;h5 style=&quot;font-size: 14px;&quot;&gt;MSG&lt;/h5&gt;" style="rounded=0;whiteSpace=wrap;html=1;sketch=1;hachureGap=4;jiggle=2;curveFitting=1;fontFamily=Verdana;fontSize=14;fillColor=#6a00ff;fontColor=#ffffff;strokeColor=#3700CC;" vertex="1" parent="1">
          <mxGeometry x="159.5" y="359" width="33" height="48" as="geometry" />
        </mxCell>
        <mxCell id="2wBlvmX4fhF8oeUSgGbd-19" value="&lt;h5 style=&quot;font-size: 14px;&quot;&gt;MSG&lt;/h5&gt;" style="rounded=0;whiteSpace=wrap;html=1;sketch=1;hachureGap=4;jiggle=2;curveFitting=1;fontFamily=Verdana;fontSize=14;fillColor=#6a00ff;fontColor=#ffffff;strokeColor=#3700CC;" vertex="1" parent="1">
          <mxGeometry x="204.5" y="359" width="33" height="48" as="geometry" />
        </mxCell>
        <mxCell id="2wBlvmX4fhF8oeUSgGbd-20" value="&lt;h5 style=&quot;font-size: 14px;&quot;&gt;MSG&lt;/h5&gt;" style="rounded=0;whiteSpace=wrap;html=1;sketch=1;hachureGap=4;jiggle=2;curveFitting=1;fontFamily=Verdana;fontSize=14;fillColor=#6a00ff;fontColor=#ffffff;strokeColor=#3700CC;" vertex="1" parent="1">
          <mxGeometry x="249.5" y="359" width="33" height="48" as="geometry" />
        </mxCell>
        <mxCell id="2wBlvmX4fhF8oeUSgGbd-21" value="&lt;font face=&quot;Verdana&quot;&gt;JMS - JAVA Serilization&lt;/font&gt;&lt;div&gt;&lt;font face=&quot;Verdana&quot;&gt;AMQP&lt;/font&gt;&lt;/div&gt;&lt;div&gt;&lt;font face=&quot;Verdana&quot;&gt;MQTT&lt;/font&gt;&lt;/div&gt;&lt;div&gt;&lt;font face=&quot;Verdana&quot;&gt;Websocket&lt;/font&gt;&lt;/div&gt;&lt;div&gt;&lt;font face=&quot;Verdana&quot;&gt;&lt;br&gt;&lt;/font&gt;&lt;/div&gt;" style="text;html=1;align=center;verticalAlign=middle;resizable=0;points=[];autosize=1;strokeColor=none;fillColor=none;fontSize=20;fontFamily=Architects Daughter;fontSource=https%3A%2F%2Ffonts.googleapis.com%2Fcss%3Ffamily%3DArchitects%2BDaughter;" vertex="1" parent="1">
          <mxGeometry x="-234" y="322" width="248" height="142" as="geometry" />
        </mxCell>
        <mxCell id="2wBlvmX4fhF8oeUSgGbd-22" value="&lt;font face=&quot;Verdana&quot;&gt;RabbitMQ&lt;/font&gt;&lt;div&gt;&lt;font face=&quot;Verdana&quot;&gt;Kafka&lt;/font&gt;&lt;/div&gt;&lt;div&gt;&lt;font face=&quot;Verdana&quot;&gt;ActiveMQ&lt;/font&gt;&lt;/div&gt;&lt;div&gt;&lt;font face=&quot;Verdana&quot;&gt;RocketMQ&lt;/font&gt;&lt;/div&gt;&lt;div&gt;&lt;font face=&quot;Verdana&quot;&gt;ZeroMQ&lt;/font&gt;&lt;/div&gt;" style="text;html=1;align=center;verticalAlign=middle;resizable=0;points=[];autosize=1;strokeColor=none;fillColor=none;fontSize=20;fontFamily=Architects Daughter;fontSource=https%3A%2F%2Ffonts.googleapis.com%2Fcss%3Ffamily%3DArchitects%2BDaughter;" vertex="1" parent="1">
          <mxGeometry x="139" y="157" width="118" height="142" as="geometry" />
        </mxCell>
        <mxCell id="2wBlvmX4fhF8oeUSgGbd-23" value="&lt;font face=&quot;Verdana&quot;&gt;JMS - JAVA Serilization&lt;/font&gt;&lt;div&gt;&lt;font face=&quot;Verdana&quot;&gt;AMQP&lt;/font&gt;&lt;/div&gt;&lt;div&gt;&lt;font face=&quot;Verdana&quot;&gt;MQTT&lt;/font&gt;&lt;/div&gt;&lt;div&gt;&lt;font face=&quot;Verdana&quot;&gt;Websocket&lt;/font&gt;&lt;/div&gt;&lt;div&gt;&lt;font face=&quot;Verdana&quot;&gt;&lt;br&gt;&lt;/font&gt;&lt;/div&gt;" style="text;html=1;align=center;verticalAlign=middle;resizable=0;points=[];autosize=1;strokeColor=none;fillColor=none;fontSize=20;fontFamily=Architects Daughter;fontSource=https%3A%2F%2Ffonts.googleapis.com%2Fcss%3Ffamily%3DArchitects%2BDaughter;" vertex="1" parent="1">
          <mxGeometry x="366" y="310" width="248" height="142" as="geometry" />
        </mxCell>
        <mxCell id="2wBlvmX4fhF8oeUSgGbd-24" value="&lt;font face=&quot;Verdana&quot;&gt;PUSH&lt;/font&gt;" style="text;html=1;align=center;verticalAlign=middle;resizable=0;points=[];autosize=1;strokeColor=none;fillColor=none;fontSize=20;fontFamily=Architects Daughter;fontSource=https%3A%2F%2Ffonts.googleapis.com%2Fcss%3Ffamily%3DArchitects%2BDaughter;" vertex="1" parent="1">
          <mxGeometry x="-151" y="458" width="73" height="38" as="geometry" />
        </mxCell>
        <mxCell id="2wBlvmX4fhF8oeUSgGbd-25" value="&lt;font face=&quot;Verdana&quot;&gt;PUSH&lt;/font&gt;&lt;div&gt;&lt;font face=&quot;Verdana&quot;&gt;PULL&lt;/font&gt;&lt;/div&gt;" style="text;html=1;align=center;verticalAlign=middle;resizable=0;points=[];autosize=1;strokeColor=none;fillColor=none;fontSize=20;fontFamily=Architects Daughter;fontSource=https%3A%2F%2Ffonts.googleapis.com%2Fcss%3Ffamily%3DArchitects%2BDaughter;" vertex="1" parent="1">
          <mxGeometry x="453.5" y="464" width="73" height="64" as="geometry" />
        </mxCell>
        <mxCell id="2wBlvmX4fhF8oeUSgGbd-58" style="edgeStyle=none;curved=1;rounded=0;sketch=1;hachureGap=4;jiggle=2;curveFitting=1;orthogonalLoop=1;jettySize=auto;html=1;exitX=1;exitY=0.5;exitDx=0;exitDy=0;entryX=0;entryY=0.5;entryDx=0;entryDy=0;fontFamily=Architects Daughter;fontSource=https%3A%2F%2Ffonts.googleapis.com%2Fcss%3Ffamily%3DArchitects%2BDaughter;fontSize=16;startSize=14;endArrow=open;endSize=14;sourcePerimeterSpacing=8;targetPerimeterSpacing=8;" edge="1" parent="1" source="2wBlvmX4fhF8oeUSgGbd-29" target="2wBlvmX4fhF8oeUSgGbd-54">
          <mxGeometry relative="1" as="geometry" />
        </mxCell>
        <mxCell id="2wBlvmX4fhF8oeUSgGbd-59" style="edgeStyle=none;curved=1;rounded=0;sketch=1;hachureGap=4;jiggle=2;curveFitting=1;orthogonalLoop=1;jettySize=auto;html=1;exitX=1;exitY=0.5;exitDx=0;exitDy=0;fontFamily=Architects Daughter;fontSource=https%3A%2F%2Ffonts.googleapis.com%2Fcss%3Ffamily%3DArchitects%2BDaughter;fontSize=16;startSize=14;endArrow=open;endSize=14;sourcePerimeterSpacing=8;targetPerimeterSpacing=8;" edge="1" parent="1" source="2wBlvmX4fhF8oeUSgGbd-29" target="2wBlvmX4fhF8oeUSgGbd-55">
          <mxGeometry relative="1" as="geometry" />
        </mxCell>
        <mxCell id="2wBlvmX4fhF8oeUSgGbd-60" style="edgeStyle=none;curved=1;rounded=0;sketch=1;hachureGap=4;jiggle=2;curveFitting=1;orthogonalLoop=1;jettySize=auto;html=1;exitX=1;exitY=0.5;exitDx=0;exitDy=0;entryX=0;entryY=0.5;entryDx=0;entryDy=0;fontFamily=Architects Daughter;fontSource=https%3A%2F%2Ffonts.googleapis.com%2Fcss%3Ffamily%3DArchitects%2BDaughter;fontSize=16;startSize=14;endArrow=open;endSize=14;sourcePerimeterSpacing=8;targetPerimeterSpacing=8;" edge="1" parent="1" source="2wBlvmX4fhF8oeUSgGbd-29" target="2wBlvmX4fhF8oeUSgGbd-56">
          <mxGeometry relative="1" as="geometry" />
        </mxCell>
        <mxCell id="2wBlvmX4fhF8oeUSgGbd-29" value="&lt;font face=&quot;Verdana&quot;&gt;B - TOPIC&lt;/font&gt;" style="whiteSpace=wrap;html=1;sketch=1;hachureGap=4;jiggle=2;curveFitting=1;fontFamily=Architects Daughter;fontSource=https%3A%2F%2Ffonts.googleapis.com%2Fcss%3Ffamily%3DArchitects%2BDaughter;" vertex="1" parent="1">
          <mxGeometry x="94" y="1429" width="195" height="60" as="geometry" />
        </mxCell>
        <mxCell id="2wBlvmX4fhF8oeUSgGbd-43" style="edgeStyle=none;curved=1;rounded=0;sketch=1;hachureGap=4;jiggle=2;curveFitting=1;orthogonalLoop=1;jettySize=auto;html=1;exitX=1;exitY=0.5;exitDx=0;exitDy=0;entryX=0;entryY=0.5;entryDx=0;entryDy=0;fontFamily=Architects Daughter;fontSource=https%3A%2F%2Ffonts.googleapis.com%2Fcss%3Ffamily%3DArchitects%2BDaughter;fontSize=16;startSize=14;endArrow=open;endSize=14;sourcePerimeterSpacing=8;targetPerimeterSpacing=8;" edge="1" parent="1" source="2wBlvmX4fhF8oeUSgGbd-30" target="2wBlvmX4fhF8oeUSgGbd-36">
          <mxGeometry relative="1" as="geometry" />
        </mxCell>
        <mxCell id="2wBlvmX4fhF8oeUSgGbd-44" style="edgeStyle=none;curved=1;rounded=0;sketch=1;hachureGap=4;jiggle=2;curveFitting=1;orthogonalLoop=1;jettySize=auto;html=1;exitX=1;exitY=0.5;exitDx=0;exitDy=0;entryX=0;entryY=0.5;entryDx=0;entryDy=0;fontFamily=Architects Daughter;fontSource=https%3A%2F%2Ffonts.googleapis.com%2Fcss%3Ffamily%3DArchitects%2BDaughter;fontSize=16;startSize=14;endArrow=open;endSize=14;sourcePerimeterSpacing=8;targetPerimeterSpacing=8;" edge="1" parent="1" source="2wBlvmX4fhF8oeUSgGbd-30" target="2wBlvmX4fhF8oeUSgGbd-39">
          <mxGeometry relative="1" as="geometry" />
        </mxCell>
        <mxCell id="2wBlvmX4fhF8oeUSgGbd-46" style="edgeStyle=none;curved=1;rounded=0;sketch=1;hachureGap=4;jiggle=2;curveFitting=1;orthogonalLoop=1;jettySize=auto;html=1;exitX=1;exitY=0.5;exitDx=0;exitDy=0;entryX=0;entryY=0.5;entryDx=0;entryDy=0;fontFamily=Architects Daughter;fontSource=https%3A%2F%2Ffonts.googleapis.com%2Fcss%3Ffamily%3DArchitects%2BDaughter;fontSize=16;startSize=14;endArrow=open;endSize=14;sourcePerimeterSpacing=8;targetPerimeterSpacing=8;" edge="1" parent="1" source="2wBlvmX4fhF8oeUSgGbd-30" target="2wBlvmX4fhF8oeUSgGbd-40">
          <mxGeometry relative="1" as="geometry" />
        </mxCell>
        <mxCell id="2wBlvmX4fhF8oeUSgGbd-30" value="&lt;font face=&quot;Verdana&quot;&gt;A - QUEUE&lt;/font&gt;" style="whiteSpace=wrap;html=1;sketch=1;hachureGap=4;jiggle=2;curveFitting=1;fontFamily=Architects Daughter;fontSource=https%3A%2F%2Ffonts.googleapis.com%2Fcss%3Ffamily%3DArchitects%2BDaughter;" vertex="1" parent="1">
          <mxGeometry x="91.5" y="904" width="195" height="60" as="geometry" />
        </mxCell>
        <mxCell id="2wBlvmX4fhF8oeUSgGbd-31" value="JMS" style="text;html=1;align=center;verticalAlign=middle;resizable=0;points=[];autosize=1;strokeColor=#2D7600;fillColor=#60a917;fontSize=20;fontFamily=Architects Daughter;fontSource=https%3A%2F%2Ffonts.googleapis.com%2Fcss%3Ffamily%3DArchitects%2BDaughter;fontColor=#ffffff;" vertex="1" parent="1">
          <mxGeometry x="166" y="754" width="58" height="36" as="geometry" />
        </mxCell>
        <mxCell id="2wBlvmX4fhF8oeUSgGbd-35" style="edgeStyle=none;curved=1;rounded=0;sketch=1;hachureGap=4;jiggle=2;curveFitting=1;orthogonalLoop=1;jettySize=auto;html=1;exitX=1;exitY=0.5;exitDx=0;exitDy=0;entryX=0;entryY=0.5;entryDx=0;entryDy=0;fontFamily=Architects Daughter;fontSource=https%3A%2F%2Ffonts.googleapis.com%2Fcss%3Ffamily%3DArchitects%2BDaughter;fontSize=16;startSize=14;endArrow=open;endSize=14;sourcePerimeterSpacing=8;targetPerimeterSpacing=8;" edge="1" parent="1" source="2wBlvmX4fhF8oeUSgGbd-34" target="2wBlvmX4fhF8oeUSgGbd-30">
          <mxGeometry relative="1" as="geometry" />
        </mxCell>
        <mxCell id="2wBlvmX4fhF8oeUSgGbd-34" value="PRODUCER" style="rounded=0;whiteSpace=wrap;html=1;sketch=1;hachureGap=4;jiggle=2;curveFitting=1;fontFamily=Verdana;fontSize=14;" vertex="1" parent="1">
          <mxGeometry x="-318" y="800" width="155" height="90" as="geometry" />
        </mxCell>
        <mxCell id="2wBlvmX4fhF8oeUSgGbd-36" value="&lt;h5 style=&quot;font-size: 14px;&quot;&gt;CONSUMER&lt;/h5&gt;" style="rounded=0;whiteSpace=wrap;html=1;sketch=1;hachureGap=4;jiggle=2;curveFitting=1;fontFamily=Verdana;fontSize=14;" vertex="1" parent="1">
          <mxGeometry x="453.5" y="823" width="155" height="79" as="geometry" />
        </mxCell>
        <mxCell id="2wBlvmX4fhF8oeUSgGbd-39" value="&lt;h5 style=&quot;font-size: 14px;&quot;&gt;CONSUMER&lt;/h5&gt;" style="rounded=0;whiteSpace=wrap;html=1;sketch=1;hachureGap=4;jiggle=2;curveFitting=1;fontFamily=Verdana;fontSize=14;" vertex="1" parent="1">
          <mxGeometry x="453.5" y="937" width="155" height="79" as="geometry" />
        </mxCell>
        <mxCell id="2wBlvmX4fhF8oeUSgGbd-40" value="&lt;h5 style=&quot;font-size: 14px;&quot;&gt;CONSUMER&lt;/h5&gt;" style="rounded=0;whiteSpace=wrap;html=1;sketch=1;hachureGap=4;jiggle=2;curveFitting=1;fontFamily=Verdana;fontSize=14;" vertex="1" parent="1">
          <mxGeometry x="453.5" y="1062" width="155" height="79" as="geometry" />
        </mxCell>
        <mxCell id="2wBlvmX4fhF8oeUSgGbd-42" style="edgeStyle=none;curved=1;rounded=0;sketch=1;hachureGap=4;jiggle=2;curveFitting=1;orthogonalLoop=1;jettySize=auto;html=1;exitX=1;exitY=0.5;exitDx=0;exitDy=0;entryX=0;entryY=0.5;entryDx=0;entryDy=0;fontFamily=Architects Daughter;fontSource=https%3A%2F%2Ffonts.googleapis.com%2Fcss%3Ffamily%3DArchitects%2BDaughter;fontSize=16;startSize=14;endArrow=open;endSize=14;sourcePerimeterSpacing=8;targetPerimeterSpacing=8;" edge="1" parent="1" source="2wBlvmX4fhF8oeUSgGbd-41" target="2wBlvmX4fhF8oeUSgGbd-30">
          <mxGeometry relative="1" as="geometry" />
        </mxCell>
        <mxCell id="2wBlvmX4fhF8oeUSgGbd-41" value="PRODUCER" style="rounded=0;whiteSpace=wrap;html=1;sketch=1;hachureGap=4;jiggle=2;curveFitting=1;fontFamily=Verdana;fontSize=14;" vertex="1" parent="1">
          <mxGeometry x="-315" y="937" width="155" height="90" as="geometry" />
        </mxCell>
        <mxCell id="2wBlvmX4fhF8oeUSgGbd-47" value="&lt;h5 style=&quot;font-size: 14px;&quot;&gt;MSG&lt;/h5&gt;" style="rounded=0;whiteSpace=wrap;html=1;sketch=1;hachureGap=4;jiggle=2;curveFitting=1;fontFamily=Verdana;fontSize=14;fillColor=#6a00ff;fontColor=#ffffff;strokeColor=#3700CC;" vertex="1" parent="1">
          <mxGeometry x="461" y="826" width="33" height="48" as="geometry" />
        </mxCell>
        <mxCell id="2wBlvmX4fhF8oeUSgGbd-48" value="&lt;h5 style=&quot;font-size: 14px;&quot;&gt;MSG&lt;/h5&gt;" style="rounded=0;whiteSpace=wrap;html=1;sketch=1;hachureGap=4;jiggle=2;curveFitting=1;fontFamily=Verdana;fontSize=14;fillColor=#6a00ff;fontColor=#ffffff;strokeColor=#3700CC;" vertex="1" parent="1">
          <mxGeometry x="103" y="908" width="33" height="48" as="geometry" />
        </mxCell>
        <mxCell id="2wBlvmX4fhF8oeUSgGbd-49" value="&lt;h5 style=&quot;font-size: 14px;&quot;&gt;MSG&lt;/h5&gt;" style="rounded=0;whiteSpace=wrap;html=1;sketch=1;hachureGap=4;jiggle=2;curveFitting=1;fontFamily=Verdana;fontSize=14;fillColor=#6a00ff;fontColor=#ffffff;strokeColor=#3700CC;" vertex="1" parent="1">
          <mxGeometry x="-62" y="832" width="33" height="48" as="geometry" />
        </mxCell>
        <mxCell id="2wBlvmX4fhF8oeUSgGbd-52" style="edgeStyle=none;curved=1;rounded=0;sketch=1;hachureGap=4;jiggle=2;curveFitting=1;orthogonalLoop=1;jettySize=auto;html=1;exitX=1;exitY=0.5;exitDx=0;exitDy=0;entryX=0;entryY=0.5;entryDx=0;entryDy=0;fontFamily=Architects Daughter;fontSource=https%3A%2F%2Ffonts.googleapis.com%2Fcss%3Ffamily%3DArchitects%2BDaughter;fontSize=16;startSize=14;endArrow=open;endSize=14;sourcePerimeterSpacing=8;targetPerimeterSpacing=8;" edge="1" parent="1" source="2wBlvmX4fhF8oeUSgGbd-50" target="2wBlvmX4fhF8oeUSgGbd-29">
          <mxGeometry relative="1" as="geometry" />
        </mxCell>
        <mxCell id="2wBlvmX4fhF8oeUSgGbd-50" value="PRODUCER" style="rounded=0;whiteSpace=wrap;html=1;sketch=1;hachureGap=4;jiggle=2;curveFitting=1;fontFamily=Verdana;fontSize=14;" vertex="1" parent="1">
          <mxGeometry x="-315" y="1345.5" width="155" height="90" as="geometry" />
        </mxCell>
        <mxCell id="2wBlvmX4fhF8oeUSgGbd-53" style="edgeStyle=none;curved=1;rounded=0;sketch=1;hachureGap=4;jiggle=2;curveFitting=1;orthogonalLoop=1;jettySize=auto;html=1;exitX=1;exitY=0.5;exitDx=0;exitDy=0;fontFamily=Architects Daughter;fontSource=https%3A%2F%2Ffonts.googleapis.com%2Fcss%3Ffamily%3DArchitects%2BDaughter;fontSize=16;startSize=14;endArrow=open;endSize=14;sourcePerimeterSpacing=8;targetPerimeterSpacing=8;" edge="1" parent="1" source="2wBlvmX4fhF8oeUSgGbd-51">
          <mxGeometry relative="1" as="geometry">
            <mxPoint x="99.74002511160734" y="1458.4946463448664" as="targetPoint" />
          </mxGeometry>
        </mxCell>
        <mxCell id="2wBlvmX4fhF8oeUSgGbd-51" value="PRODUCER" style="rounded=0;whiteSpace=wrap;html=1;sketch=1;hachureGap=4;jiggle=2;curveFitting=1;fontFamily=Verdana;fontSize=14;" vertex="1" parent="1">
          <mxGeometry x="-312" y="1482.5" width="155" height="90" as="geometry" />
        </mxCell>
        <mxCell id="2wBlvmX4fhF8oeUSgGbd-54" value="&lt;h5 style=&quot;font-size: 14px;&quot;&gt;CONSUMER&lt;/h5&gt;" style="rounded=0;whiteSpace=wrap;html=1;sketch=1;hachureGap=4;jiggle=2;curveFitting=1;fontFamily=Verdana;fontSize=14;" vertex="1" parent="1">
          <mxGeometry x="451" y="1300" width="155" height="79" as="geometry" />
        </mxCell>
        <mxCell id="2wBlvmX4fhF8oeUSgGbd-55" value="&lt;h5 style=&quot;font-size: 14px;&quot;&gt;CONSUMER&lt;/h5&gt;" style="rounded=0;whiteSpace=wrap;html=1;sketch=1;hachureGap=4;jiggle=2;curveFitting=1;fontFamily=Verdana;fontSize=14;" vertex="1" parent="1">
          <mxGeometry x="451" y="1414" width="155" height="79" as="geometry" />
        </mxCell>
        <mxCell id="2wBlvmX4fhF8oeUSgGbd-56" value="&lt;h5 style=&quot;font-size: 14px;&quot;&gt;CONSUMER&lt;/h5&gt;" style="rounded=0;whiteSpace=wrap;html=1;sketch=1;hachureGap=4;jiggle=2;curveFitting=1;fontFamily=Verdana;fontSize=14;" vertex="1" parent="1">
          <mxGeometry x="451" y="1539" width="155" height="79" as="geometry" />
        </mxCell>
        <mxCell id="2wBlvmX4fhF8oeUSgGbd-57" value="&lt;h5 style=&quot;font-size: 14px;&quot;&gt;MSG&lt;/h5&gt;" style="rounded=0;whiteSpace=wrap;html=1;sketch=1;hachureGap=4;jiggle=2;curveFitting=1;fontFamily=Verdana;fontSize=14;fillColor=#6a00ff;fontColor=#ffffff;strokeColor=#3700CC;" vertex="1" parent="1">
          <mxGeometry x="459" y="1302" width="32.5" height="49" as="geometry" />
        </mxCell>
        <mxCell id="2wBlvmX4fhF8oeUSgGbd-61" value="&lt;h5 style=&quot;font-size: 14px;&quot;&gt;MSG&lt;/h5&gt;" style="rounded=0;whiteSpace=wrap;html=1;sketch=1;hachureGap=4;jiggle=2;curveFitting=1;fontFamily=Verdana;fontSize=14;fillColor=#6a00ff;fontColor=#ffffff;strokeColor=#3700CC;" vertex="1" parent="1">
          <mxGeometry x="453.5" y="1420" width="32.5" height="49" as="geometry" />
        </mxCell>
        <mxCell id="2wBlvmX4fhF8oeUSgGbd-62" value="&lt;h5 style=&quot;font-size: 14px;&quot;&gt;MSG&lt;/h5&gt;" style="rounded=0;whiteSpace=wrap;html=1;sketch=1;hachureGap=4;jiggle=2;curveFitting=1;fontFamily=Verdana;fontSize=14;fillColor=#6a00ff;fontColor=#ffffff;strokeColor=#3700CC;" vertex="1" parent="1">
          <mxGeometry x="459" y="1543" width="32.5" height="49" as="geometry" />
        </mxCell>
        <mxCell id="2wBlvmX4fhF8oeUSgGbd-63" value="&lt;h5 style=&quot;font-size: 14px;&quot;&gt;MSG&lt;/h5&gt;" style="rounded=0;whiteSpace=wrap;html=1;sketch=1;hachureGap=4;jiggle=2;curveFitting=1;fontFamily=Verdana;fontSize=14;fillColor=#6a00ff;fontColor=#ffffff;strokeColor=#3700CC;" vertex="1" parent="1">
          <mxGeometry x="-72" y="1369" width="33" height="48" as="geometry" />
        </mxCell>
        <mxCell id="2wBlvmX4fhF8oeUSgGbd-64" value="&lt;h5 style=&quot;font-size: 14px;&quot;&gt;MSG&lt;/h5&gt;" style="rounded=0;whiteSpace=wrap;html=1;sketch=1;hachureGap=4;jiggle=2;curveFitting=1;fontFamily=Verdana;fontSize=14;fillColor=#6a00ff;fontColor=#ffffff;strokeColor=#3700CC;" vertex="1" parent="1">
          <mxGeometry x="106" y="1435.5" width="33" height="48" as="geometry" />
        </mxCell>
        <mxCell id="2wBlvmX4fhF8oeUSgGbd-65" value="&lt;h5 style=&quot;font-size: 14px;&quot;&gt;QUEUE&lt;/h5&gt;" style="rounded=0;whiteSpace=wrap;html=1;sketch=1;hachureGap=4;jiggle=2;curveFitting=1;fontFamily=Verdana;fontSize=14;" vertex="1" parent="1">
          <mxGeometry x="19" y="1841" width="342" height="836" as="geometry" />
        </mxCell>
        <mxCell id="2wBlvmX4fhF8oeUSgGbd-70" style="edgeStyle=none;curved=1;rounded=0;sketch=1;hachureGap=4;jiggle=2;curveFitting=1;orthogonalLoop=1;jettySize=auto;html=1;exitX=1;exitY=0.5;exitDx=0;exitDy=0;entryX=0;entryY=0.5;entryDx=0;entryDy=0;fontFamily=Architects Daughter;fontSource=https%3A%2F%2Ffonts.googleapis.com%2Fcss%3Ffamily%3DArchitects%2BDaughter;fontSize=16;startSize=14;endArrow=open;endSize=14;sourcePerimeterSpacing=8;targetPerimeterSpacing=8;" edge="1" parent="1" source="2wBlvmX4fhF8oeUSgGbd-73" target="2wBlvmX4fhF8oeUSgGbd-77">
          <mxGeometry relative="1" as="geometry" />
        </mxCell>
        <mxCell id="2wBlvmX4fhF8oeUSgGbd-71" style="edgeStyle=none;curved=1;rounded=0;sketch=1;hachureGap=4;jiggle=2;curveFitting=1;orthogonalLoop=1;jettySize=auto;html=1;exitX=1;exitY=0.5;exitDx=0;exitDy=0;entryX=0;entryY=0.5;entryDx=0;entryDy=0;fontFamily=Architects Daughter;fontSource=https%3A%2F%2Ffonts.googleapis.com%2Fcss%3Ffamily%3DArchitects%2BDaughter;fontSize=16;startSize=14;endArrow=open;endSize=14;sourcePerimeterSpacing=8;targetPerimeterSpacing=8;" edge="1" parent="1" source="2wBlvmX4fhF8oeUSgGbd-73" target="2wBlvmX4fhF8oeUSgGbd-78">
          <mxGeometry relative="1" as="geometry" />
        </mxCell>
        <mxCell id="2wBlvmX4fhF8oeUSgGbd-72" style="edgeStyle=none;curved=1;rounded=0;sketch=1;hachureGap=4;jiggle=2;curveFitting=1;orthogonalLoop=1;jettySize=auto;html=1;exitX=1;exitY=0.5;exitDx=0;exitDy=0;entryX=0;entryY=0.5;entryDx=0;entryDy=0;fontFamily=Architects Daughter;fontSource=https%3A%2F%2Ffonts.googleapis.com%2Fcss%3Ffamily%3DArchitects%2BDaughter;fontSize=16;startSize=14;endArrow=open;endSize=14;sourcePerimeterSpacing=8;targetPerimeterSpacing=8;" edge="1" parent="1" source="2wBlvmX4fhF8oeUSgGbd-73" target="2wBlvmX4fhF8oeUSgGbd-79">
          <mxGeometry relative="1" as="geometry" />
        </mxCell>
        <mxCell id="2wBlvmX4fhF8oeUSgGbd-73" value="&lt;font face=&quot;Verdana&quot;&gt;QUEUE&lt;/font&gt;" style="whiteSpace=wrap;html=1;sketch=1;hachureGap=4;jiggle=2;curveFitting=1;fontFamily=Architects Daughter;fontSource=https%3A%2F%2Ffonts.googleapis.com%2Fcss%3Ffamily%3DArchitects%2BDaughter;" vertex="1" parent="1">
          <mxGeometry x="215" y="1922" width="113.5" height="60" as="geometry" />
        </mxCell>
        <mxCell id="2wBlvmX4fhF8oeUSgGbd-74" value="RABBITMQ" style="text;html=1;align=center;verticalAlign=middle;resizable=0;points=[];autosize=1;strokeColor=#2D7600;fillColor=#60a917;fontSize=20;fontFamily=Architects Daughter;fontSource=https%3A%2F%2Ffonts.googleapis.com%2Fcss%3Ffamily%3DArchitects%2BDaughter;fontColor=#ffffff;" vertex="1" parent="1">
          <mxGeometry x="177" y="1772" width="120" height="36" as="geometry" />
        </mxCell>
        <mxCell id="2wBlvmX4fhF8oeUSgGbd-99" style="edgeStyle=none;curved=1;rounded=0;sketch=1;hachureGap=4;jiggle=2;curveFitting=1;orthogonalLoop=1;jettySize=auto;html=1;exitX=1;exitY=0.5;exitDx=0;exitDy=0;entryX=0;entryY=0.5;entryDx=0;entryDy=0;fontFamily=Architects Daughter;fontSource=https%3A%2F%2Ffonts.googleapis.com%2Fcss%3Ffamily%3DArchitects%2BDaughter;fontSize=16;startSize=14;endArrow=open;endSize=14;sourcePerimeterSpacing=8;targetPerimeterSpacing=8;" edge="1" parent="1" source="2wBlvmX4fhF8oeUSgGbd-76" target="2wBlvmX4fhF8oeUSgGbd-97">
          <mxGeometry relative="1" as="geometry" />
        </mxCell>
        <mxCell id="2wBlvmX4fhF8oeUSgGbd-76" value="PRODUCER" style="rounded=0;whiteSpace=wrap;html=1;sketch=1;hachureGap=4;jiggle=2;curveFitting=1;fontFamily=Verdana;fontSize=14;" vertex="1" parent="1">
          <mxGeometry x="-276" y="1818" width="155" height="90" as="geometry" />
        </mxCell>
        <mxCell id="2wBlvmX4fhF8oeUSgGbd-77" value="&lt;h5 style=&quot;font-size: 14px;&quot;&gt;CONSUMER&lt;/h5&gt;" style="rounded=0;whiteSpace=wrap;html=1;sketch=1;hachureGap=4;jiggle=2;curveFitting=1;fontFamily=Verdana;fontSize=14;" vertex="1" parent="1">
          <mxGeometry x="495.5" y="1841" width="155" height="79" as="geometry" />
        </mxCell>
        <mxCell id="2wBlvmX4fhF8oeUSgGbd-78" value="&lt;h5 style=&quot;font-size: 14px;&quot;&gt;CONSUMER&lt;/h5&gt;" style="rounded=0;whiteSpace=wrap;html=1;sketch=1;hachureGap=4;jiggle=2;curveFitting=1;fontFamily=Verdana;fontSize=14;" vertex="1" parent="1">
          <mxGeometry x="495.5" y="1955" width="155" height="79" as="geometry" />
        </mxCell>
        <mxCell id="2wBlvmX4fhF8oeUSgGbd-79" value="&lt;h5 style=&quot;font-size: 14px;&quot;&gt;CONSUMER&lt;/h5&gt;" style="rounded=0;whiteSpace=wrap;html=1;sketch=1;hachureGap=4;jiggle=2;curveFitting=1;fontFamily=Verdana;fontSize=14;" vertex="1" parent="1">
          <mxGeometry x="495.5" y="2080" width="155" height="79" as="geometry" />
        </mxCell>
        <mxCell id="2wBlvmX4fhF8oeUSgGbd-100" style="edgeStyle=none;curved=1;rounded=0;sketch=1;hachureGap=4;jiggle=2;curveFitting=1;orthogonalLoop=1;jettySize=auto;html=1;exitX=1;exitY=0.5;exitDx=0;exitDy=0;fontFamily=Architects Daughter;fontSource=https%3A%2F%2Ffonts.googleapis.com%2Fcss%3Ffamily%3DArchitects%2BDaughter;fontSize=16;startSize=14;endArrow=open;endSize=14;sourcePerimeterSpacing=8;targetPerimeterSpacing=8;" edge="1" parent="1" source="2wBlvmX4fhF8oeUSgGbd-81">
          <mxGeometry relative="1" as="geometry">
            <mxPoint x="55.78403145926359" y="1955.930559430804" as="targetPoint" />
          </mxGeometry>
        </mxCell>
        <mxCell id="2wBlvmX4fhF8oeUSgGbd-81" value="PRODUCER" style="rounded=0;whiteSpace=wrap;html=1;sketch=1;hachureGap=4;jiggle=2;curveFitting=1;fontFamily=Verdana;fontSize=14;" vertex="1" parent="1">
          <mxGeometry x="-273" y="1955" width="155" height="90" as="geometry" />
        </mxCell>
        <mxCell id="2wBlvmX4fhF8oeUSgGbd-125" style="edgeStyle=none;curved=1;rounded=0;sketch=1;hachureGap=4;jiggle=2;curveFitting=1;orthogonalLoop=1;jettySize=auto;html=1;exitX=1;exitY=0.5;exitDx=0;exitDy=0;entryX=0;entryY=0.5;entryDx=0;entryDy=0;fontFamily=Architects Daughter;fontSource=https%3A%2F%2Ffonts.googleapis.com%2Fcss%3Ffamily%3DArchitects%2BDaughter;fontSize=16;startSize=14;endArrow=open;endSize=14;sourcePerimeterSpacing=8;targetPerimeterSpacing=8;" edge="1" parent="1" source="2wBlvmX4fhF8oeUSgGbd-97" target="2wBlvmX4fhF8oeUSgGbd-73">
          <mxGeometry relative="1" as="geometry" />
        </mxCell>
        <mxCell id="2wBlvmX4fhF8oeUSgGbd-126" style="edgeStyle=none;curved=1;rounded=0;sketch=1;hachureGap=4;jiggle=2;curveFitting=1;orthogonalLoop=1;jettySize=auto;html=1;exitX=1;exitY=0.5;exitDx=0;exitDy=0;entryX=0;entryY=0.5;entryDx=0;entryDy=0;fontFamily=Architects Daughter;fontSource=https%3A%2F%2Ffonts.googleapis.com%2Fcss%3Ffamily%3DArchitects%2BDaughter;fontSize=16;startSize=14;endArrow=open;endSize=14;sourcePerimeterSpacing=8;targetPerimeterSpacing=8;" edge="1" parent="1" source="2wBlvmX4fhF8oeUSgGbd-97" target="2wBlvmX4fhF8oeUSgGbd-120">
          <mxGeometry relative="1" as="geometry" />
        </mxCell>
        <mxCell id="2wBlvmX4fhF8oeUSgGbd-97" value="&lt;font face=&quot;Verdana&quot;&gt;EXCHANGE&lt;/font&gt;" style="whiteSpace=wrap;html=1;sketch=1;hachureGap=4;jiggle=2;curveFitting=1;fontFamily=Architects Daughter;fontSource=https%3A%2F%2Ffonts.googleapis.com%2Fcss%3Ffamily%3DArchitects%2BDaughter;" vertex="1" parent="1">
          <mxGeometry x="52.5" y="1927" width="113.5" height="60" as="geometry" />
        </mxCell>
        <mxCell id="2wBlvmX4fhF8oeUSgGbd-117" style="edgeStyle=none;curved=1;rounded=0;sketch=1;hachureGap=4;jiggle=2;curveFitting=1;orthogonalLoop=1;jettySize=auto;html=1;exitX=1;exitY=0.5;exitDx=0;exitDy=0;entryX=0;entryY=0.5;entryDx=0;entryDy=0;fontFamily=Architects Daughter;fontSource=https%3A%2F%2Ffonts.googleapis.com%2Fcss%3Ffamily%3DArchitects%2BDaughter;fontSize=16;startSize=14;endArrow=open;endSize=14;sourcePerimeterSpacing=8;targetPerimeterSpacing=8;" edge="1" parent="1" source="2wBlvmX4fhF8oeUSgGbd-120" target="2wBlvmX4fhF8oeUSgGbd-121">
          <mxGeometry relative="1" as="geometry" />
        </mxCell>
        <mxCell id="2wBlvmX4fhF8oeUSgGbd-118" style="edgeStyle=none;curved=1;rounded=0;sketch=1;hachureGap=4;jiggle=2;curveFitting=1;orthogonalLoop=1;jettySize=auto;html=1;exitX=1;exitY=0.5;exitDx=0;exitDy=0;entryX=0;entryY=0.5;entryDx=0;entryDy=0;fontFamily=Architects Daughter;fontSource=https%3A%2F%2Ffonts.googleapis.com%2Fcss%3Ffamily%3DArchitects%2BDaughter;fontSize=16;startSize=14;endArrow=open;endSize=14;sourcePerimeterSpacing=8;targetPerimeterSpacing=8;" edge="1" parent="1" source="2wBlvmX4fhF8oeUSgGbd-120" target="2wBlvmX4fhF8oeUSgGbd-122">
          <mxGeometry relative="1" as="geometry" />
        </mxCell>
        <mxCell id="2wBlvmX4fhF8oeUSgGbd-119" style="edgeStyle=none;curved=1;rounded=0;sketch=1;hachureGap=4;jiggle=2;curveFitting=1;orthogonalLoop=1;jettySize=auto;html=1;exitX=1;exitY=0.5;exitDx=0;exitDy=0;entryX=0;entryY=0.5;entryDx=0;entryDy=0;fontFamily=Architects Daughter;fontSource=https%3A%2F%2Ffonts.googleapis.com%2Fcss%3Ffamily%3DArchitects%2BDaughter;fontSize=16;startSize=14;endArrow=open;endSize=14;sourcePerimeterSpacing=8;targetPerimeterSpacing=8;" edge="1" parent="1" source="2wBlvmX4fhF8oeUSgGbd-120" target="2wBlvmX4fhF8oeUSgGbd-123">
          <mxGeometry relative="1" as="geometry" />
        </mxCell>
        <mxCell id="2wBlvmX4fhF8oeUSgGbd-120" value="&lt;font face=&quot;Verdana&quot;&gt;QUEUE&lt;/font&gt;" style="whiteSpace=wrap;html=1;sketch=1;hachureGap=4;jiggle=2;curveFitting=1;fontFamily=Architects Daughter;fontSource=https%3A%2F%2Ffonts.googleapis.com%2Fcss%3Ffamily%3DArchitects%2BDaughter;" vertex="1" parent="1">
          <mxGeometry x="234" y="2275" width="113.5" height="60" as="geometry" />
        </mxCell>
        <mxCell id="2wBlvmX4fhF8oeUSgGbd-121" value="&lt;h5 style=&quot;font-size: 14px;&quot;&gt;CONSUMER&lt;/h5&gt;" style="rounded=0;whiteSpace=wrap;html=1;sketch=1;hachureGap=4;jiggle=2;curveFitting=1;fontFamily=Verdana;fontSize=14;" vertex="1" parent="1">
          <mxGeometry x="514.5" y="2194" width="155" height="79" as="geometry" />
        </mxCell>
        <mxCell id="2wBlvmX4fhF8oeUSgGbd-122" value="&lt;h5 style=&quot;font-size: 14px;&quot;&gt;CONSUMER&lt;/h5&gt;" style="rounded=0;whiteSpace=wrap;html=1;sketch=1;hachureGap=4;jiggle=2;curveFitting=1;fontFamily=Verdana;fontSize=14;" vertex="1" parent="1">
          <mxGeometry x="514.5" y="2308" width="155" height="79" as="geometry" />
        </mxCell>
        <mxCell id="2wBlvmX4fhF8oeUSgGbd-123" value="&lt;h5 style=&quot;font-size: 14px;&quot;&gt;CONSUMER&lt;/h5&gt;" style="rounded=0;whiteSpace=wrap;html=1;sketch=1;hachureGap=4;jiggle=2;curveFitting=1;fontFamily=Verdana;fontSize=14;" vertex="1" parent="1">
          <mxGeometry x="514.5" y="2433" width="155" height="79" as="geometry" />
        </mxCell>
        <mxCell id="2wBlvmX4fhF8oeUSgGbd-127" value="&lt;h5 style=&quot;font-size: 14px;&quot;&gt;MSG&lt;/h5&gt;" style="rounded=0;whiteSpace=wrap;html=1;sketch=1;hachureGap=4;jiggle=2;curveFitting=1;fontFamily=Verdana;fontSize=14;fillColor=#6a00ff;fontColor=#ffffff;strokeColor=#3700CC;" vertex="1" parent="1">
          <mxGeometry x="-68" y="1839" width="33" height="48" as="geometry" />
        </mxCell>
        <mxCell id="2wBlvmX4fhF8oeUSgGbd-131" value="&lt;h5 style=&quot;font-size: 14px;&quot;&gt;&lt;br&gt;&lt;/h5&gt;" style="rounded=0;whiteSpace=wrap;html=1;sketch=1;hachureGap=4;jiggle=2;curveFitting=1;fontFamily=Verdana;fontSize=14;" vertex="1" parent="1">
          <mxGeometry x="33" y="2867" width="342" height="504" as="geometry" />
        </mxCell>
        <mxCell id="2wBlvmX4fhF8oeUSgGbd-135" value="&lt;font face=&quot;Verdana&quot;&gt;TOPIC&lt;/font&gt;" style="whiteSpace=wrap;html=1;sketch=1;hachureGap=4;jiggle=2;curveFitting=1;fontFamily=Architects Daughter;fontSource=https%3A%2F%2Ffonts.googleapis.com%2Fcss%3Ffamily%3DArchitects%2BDaughter;horizontal=1;verticalAlign=top;" vertex="1" parent="1">
          <mxGeometry x="91" y="2948" width="251.5" height="331" as="geometry" />
        </mxCell>
        <mxCell id="2wBlvmX4fhF8oeUSgGbd-136" value="KAFKA" style="text;html=1;align=center;verticalAlign=middle;resizable=0;points=[];autosize=1;strokeColor=#2D7600;fillColor=#60a917;fontSize=20;fontFamily=Architects Daughter;fontSource=https%3A%2F%2Ffonts.googleapis.com%2Fcss%3Ffamily%3DArchitects%2BDaughter;fontColor=#ffffff;" vertex="1" parent="1">
          <mxGeometry x="166" y="2789" width="82" height="36" as="geometry" />
        </mxCell>
        <mxCell id="2wBlvmX4fhF8oeUSgGbd-138" value="PRODUCER" style="rounded=0;whiteSpace=wrap;html=1;sketch=1;hachureGap=4;jiggle=2;curveFitting=1;fontFamily=Verdana;fontSize=14;" vertex="1" parent="1">
          <mxGeometry x="-262" y="2844" width="155" height="90" as="geometry" />
        </mxCell>
        <mxCell id="2wBlvmX4fhF8oeUSgGbd-156" style="edgeStyle=none;curved=1;rounded=0;sketch=1;hachureGap=4;jiggle=2;curveFitting=1;orthogonalLoop=1;jettySize=auto;html=1;exitX=1;exitY=0.5;exitDx=0;exitDy=0;fontFamily=Architects Daughter;fontSource=https%3A%2F%2Ffonts.googleapis.com%2Fcss%3Ffamily%3DArchitects%2BDaughter;fontSize=16;startSize=14;endArrow=open;endSize=14;sourcePerimeterSpacing=8;targetPerimeterSpacing=8;entryX=-0.01;entryY=0.443;entryDx=0;entryDy=0;entryPerimeter=0;" edge="1" parent="1" source="2wBlvmX4fhF8oeUSgGbd-143" target="2wBlvmX4fhF8oeUSgGbd-135">
          <mxGeometry relative="1" as="geometry">
            <mxPoint x="95.34453473772328" y="3054.099068777902" as="targetPoint" />
          </mxGeometry>
        </mxCell>
        <mxCell id="2wBlvmX4fhF8oeUSgGbd-143" value="PRODUCER" style="rounded=0;whiteSpace=wrap;html=1;sketch=1;hachureGap=4;jiggle=2;curveFitting=1;fontFamily=Verdana;fontSize=14;" vertex="1" parent="1">
          <mxGeometry x="-259" y="2978" width="155" height="90" as="geometry" />
        </mxCell>
        <mxCell id="2wBlvmX4fhF8oeUSgGbd-154" value="&lt;h5 style=&quot;font-size: 14px;&quot;&gt;MSG&lt;/h5&gt;" style="rounded=0;whiteSpace=wrap;html=1;sketch=1;hachureGap=4;jiggle=2;curveFitting=1;fontFamily=Verdana;fontSize=14;fillColor=#6a00ff;fontColor=#ffffff;strokeColor=#3700CC;" vertex="1" parent="1">
          <mxGeometry x="-65" y="2890" width="33" height="48" as="geometry" />
        </mxCell>
        <mxCell id="2wBlvmX4fhF8oeUSgGbd-155" style="edgeStyle=none;curved=1;rounded=0;sketch=1;hachureGap=4;jiggle=2;curveFitting=1;orthogonalLoop=1;jettySize=auto;html=1;exitX=1;exitY=0.5;exitDx=0;exitDy=0;entryX=0;entryY=0.453;entryDx=0;entryDy=0;entryPerimeter=0;fontFamily=Architects Daughter;fontSource=https%3A%2F%2Ffonts.googleapis.com%2Fcss%3Ffamily%3DArchitects%2BDaughter;fontSize=16;startSize=14;endArrow=open;endSize=14;sourcePerimeterSpacing=8;targetPerimeterSpacing=8;" edge="1" parent="1" source="2wBlvmX4fhF8oeUSgGbd-138" target="2wBlvmX4fhF8oeUSgGbd-135">
          <mxGeometry relative="1" as="geometry" />
        </mxCell>
        <mxCell id="2wBlvmX4fhF8oeUSgGbd-157" value="&lt;h5 style=&quot;font-size: 14px;&quot;&gt;CONSUMER GROUP&lt;/h5&gt;" style="rounded=0;whiteSpace=wrap;html=1;sketch=1;hachureGap=4;jiggle=2;curveFitting=1;fontFamily=Verdana;fontSize=14;verticalAlign=top;" vertex="1" parent="1">
          <mxGeometry x="469" y="2862" width="387" height="444" as="geometry" />
        </mxCell>
        <mxCell id="2wBlvmX4fhF8oeUSgGbd-168" style="edgeStyle=none;curved=1;rounded=0;sketch=1;hachureGap=4;jiggle=2;curveFitting=1;orthogonalLoop=1;jettySize=auto;html=1;exitX=0;exitY=0.5;exitDx=0;exitDy=0;entryX=1;entryY=0.5;entryDx=0;entryDy=0;fontFamily=Architects Daughter;fontSource=https%3A%2F%2Ffonts.googleapis.com%2Fcss%3Ffamily%3DArchitects%2BDaughter;fontSize=16;startSize=14;endArrow=open;endSize=14;sourcePerimeterSpacing=8;targetPerimeterSpacing=8;" edge="1" parent="1" source="2wBlvmX4fhF8oeUSgGbd-158" target="2wBlvmX4fhF8oeUSgGbd-162">
          <mxGeometry relative="1" as="geometry" />
        </mxCell>
        <mxCell id="2wBlvmX4fhF8oeUSgGbd-158" value="&lt;h5 style=&quot;font-size: 14px;&quot;&gt;CONSUMER&lt;/h5&gt;" style="rounded=0;whiteSpace=wrap;html=1;sketch=1;hachureGap=4;jiggle=2;curveFitting=1;fontFamily=Verdana;fontSize=14;" vertex="1" parent="1">
          <mxGeometry x="487" y="2934" width="155" height="79" as="geometry" />
        </mxCell>
        <mxCell id="2wBlvmX4fhF8oeUSgGbd-169" style="edgeStyle=none;curved=1;rounded=0;sketch=1;hachureGap=4;jiggle=2;curveFitting=1;orthogonalLoop=1;jettySize=auto;html=1;exitX=0;exitY=0.5;exitDx=0;exitDy=0;entryX=1;entryY=0.5;entryDx=0;entryDy=0;fontFamily=Architects Daughter;fontSource=https%3A%2F%2Ffonts.googleapis.com%2Fcss%3Ffamily%3DArchitects%2BDaughter;fontSize=16;startSize=14;endArrow=open;endSize=14;sourcePerimeterSpacing=8;targetPerimeterSpacing=8;" edge="1" parent="1" source="2wBlvmX4fhF8oeUSgGbd-159" target="2wBlvmX4fhF8oeUSgGbd-164">
          <mxGeometry relative="1" as="geometry" />
        </mxCell>
        <mxCell id="2wBlvmX4fhF8oeUSgGbd-159" value="&lt;h5 style=&quot;font-size: 14px;&quot;&gt;CONSUMER&lt;/h5&gt;" style="rounded=0;whiteSpace=wrap;html=1;sketch=1;hachureGap=4;jiggle=2;curveFitting=1;fontFamily=Verdana;fontSize=14;" vertex="1" parent="1">
          <mxGeometry x="677" y="2934" width="155" height="79" as="geometry" />
        </mxCell>
        <mxCell id="2wBlvmX4fhF8oeUSgGbd-170" style="edgeStyle=none;curved=1;rounded=0;sketch=1;hachureGap=4;jiggle=2;curveFitting=1;orthogonalLoop=1;jettySize=auto;html=1;exitX=0;exitY=0.5;exitDx=0;exitDy=0;entryX=1;entryY=0.5;entryDx=0;entryDy=0;fontFamily=Architects Daughter;fontSource=https%3A%2F%2Ffonts.googleapis.com%2Fcss%3Ffamily%3DArchitects%2BDaughter;fontSize=16;startSize=14;endArrow=open;endSize=14;sourcePerimeterSpacing=8;targetPerimeterSpacing=8;" edge="1" parent="1" source="2wBlvmX4fhF8oeUSgGbd-160" target="2wBlvmX4fhF8oeUSgGbd-165">
          <mxGeometry relative="1" as="geometry" />
        </mxCell>
        <mxCell id="2wBlvmX4fhF8oeUSgGbd-160" value="&lt;h5 style=&quot;font-size: 14px;&quot;&gt;CONSUMER&lt;/h5&gt;" style="rounded=0;whiteSpace=wrap;html=1;sketch=1;hachureGap=4;jiggle=2;curveFitting=1;fontFamily=Verdana;fontSize=14;" vertex="1" parent="1">
          <mxGeometry x="486" y="3045" width="155" height="79" as="geometry" />
        </mxCell>
        <mxCell id="2wBlvmX4fhF8oeUSgGbd-162" value="PARTITION" style="rounded=0;whiteSpace=wrap;html=1;sketch=1;hachureGap=4;jiggle=2;curveFitting=1;fontFamily=Verdana;fontSize=14;" vertex="1" parent="1">
          <mxGeometry x="111.5" y="2986" width="209.5" height="49" as="geometry" />
        </mxCell>
        <mxCell id="2wBlvmX4fhF8oeUSgGbd-164" value="PARTITION" style="rounded=0;whiteSpace=wrap;html=1;sketch=1;hachureGap=4;jiggle=2;curveFitting=1;fontFamily=Verdana;fontSize=14;" vertex="1" parent="1">
          <mxGeometry x="112" y="3045" width="209.5" height="49" as="geometry" />
        </mxCell>
        <mxCell id="2wBlvmX4fhF8oeUSgGbd-165" value="PARTITION" style="rounded=0;whiteSpace=wrap;html=1;sketch=1;hachureGap=4;jiggle=2;curveFitting=1;fontFamily=Verdana;fontSize=14;" vertex="1" parent="1">
          <mxGeometry x="109.5" y="3108" width="209.5" height="49" as="geometry" />
        </mxCell>
        <mxCell id="2wBlvmX4fhF8oeUSgGbd-166" value="PARTITION" style="rounded=0;whiteSpace=wrap;html=1;sketch=1;hachureGap=4;jiggle=2;curveFitting=1;fontFamily=Verdana;fontSize=14;" vertex="1" parent="1">
          <mxGeometry x="109.5" y="3168" width="209.5" height="49" as="geometry" />
        </mxCell>
        <mxCell id="2wBlvmX4fhF8oeUSgGbd-167" value="&lt;h5 style=&quot;font-size: 14px;&quot;&gt;MSG&lt;/h5&gt;" style="rounded=0;whiteSpace=wrap;html=1;sketch=1;hachureGap=4;jiggle=2;curveFitting=1;fontFamily=Verdana;fontSize=14;fillColor=#6a00ff;fontColor=#ffffff;strokeColor=#3700CC;" vertex="1" parent="1">
          <mxGeometry x="124" y="2987.5" width="33" height="48" as="geometry" />
        </mxCell>
        <mxCell id="2wBlvmX4fhF8oeUSgGbd-173" style="edgeStyle=none;curved=1;rounded=0;sketch=1;hachureGap=4;jiggle=2;curveFitting=1;orthogonalLoop=1;jettySize=auto;html=1;exitX=0;exitY=0.5;exitDx=0;exitDy=0;entryX=1;entryY=0.5;entryDx=0;entryDy=0;fontFamily=Architects Daughter;fontSource=https%3A%2F%2Ffonts.googleapis.com%2Fcss%3Ffamily%3DArchitects%2BDaughter;fontSize=16;startSize=14;endArrow=open;endSize=14;sourcePerimeterSpacing=8;targetPerimeterSpacing=8;" edge="1" parent="1" source="2wBlvmX4fhF8oeUSgGbd-172" target="2wBlvmX4fhF8oeUSgGbd-166">
          <mxGeometry relative="1" as="geometry" />
        </mxCell>
        <mxCell id="2wBlvmX4fhF8oeUSgGbd-172" value="&lt;h5 style=&quot;font-size: 14px;&quot;&gt;CONSUMER&lt;/h5&gt;" style="rounded=0;whiteSpace=wrap;html=1;sketch=1;hachureGap=4;jiggle=2;curveFitting=1;fontFamily=Verdana;fontSize=14;" vertex="1" parent="1">
          <mxGeometry x="677" y="3047" width="155" height="79" as="geometry" />
        </mxCell>
        <mxCell id="2wBlvmX4fhF8oeUSgGbd-175" value="&lt;h5 style=&quot;font-size: 14px;&quot;&gt;CONSUMER GROUP&lt;/h5&gt;" style="rounded=0;whiteSpace=wrap;html=1;sketch=1;hachureGap=4;jiggle=2;curveFitting=1;fontFamily=Verdana;fontSize=14;verticalAlign=top;" vertex="1" parent="1">
          <mxGeometry x="469" y="3335" width="387" height="232" as="geometry" />
        </mxCell>
        <mxCell id="2wBlvmX4fhF8oeUSgGbd-180" style="edgeStyle=none;curved=1;rounded=0;sketch=1;hachureGap=4;jiggle=2;curveFitting=1;orthogonalLoop=1;jettySize=auto;html=1;exitX=0;exitY=0.5;exitDx=0;exitDy=0;entryX=1;entryY=0.5;entryDx=0;entryDy=0;fontFamily=Architects Daughter;fontSource=https%3A%2F%2Ffonts.googleapis.com%2Fcss%3Ffamily%3DArchitects%2BDaughter;fontSize=16;startSize=14;endArrow=open;endSize=14;sourcePerimeterSpacing=8;targetPerimeterSpacing=8;" edge="1" parent="1" source="2wBlvmX4fhF8oeUSgGbd-176" target="2wBlvmX4fhF8oeUSgGbd-162">
          <mxGeometry relative="1" as="geometry" />
        </mxCell>
        <mxCell id="2wBlvmX4fhF8oeUSgGbd-184" style="edgeStyle=none;curved=1;rounded=0;sketch=1;hachureGap=4;jiggle=2;curveFitting=1;orthogonalLoop=1;jettySize=auto;html=1;exitX=0;exitY=0.5;exitDx=0;exitDy=0;entryX=1;entryY=0.5;entryDx=0;entryDy=0;fontFamily=Architects Daughter;fontSource=https%3A%2F%2Ffonts.googleapis.com%2Fcss%3Ffamily%3DArchitects%2BDaughter;fontSize=16;startSize=14;endArrow=open;endSize=14;sourcePerimeterSpacing=8;targetPerimeterSpacing=8;" edge="1" parent="1" source="2wBlvmX4fhF8oeUSgGbd-176" target="2wBlvmX4fhF8oeUSgGbd-164">
          <mxGeometry relative="1" as="geometry" />
        </mxCell>
        <mxCell id="2wBlvmX4fhF8oeUSgGbd-176" value="&lt;h5 style=&quot;font-size: 14px;&quot;&gt;CONSUMER&lt;/h5&gt;" style="rounded=0;whiteSpace=wrap;html=1;sketch=1;hachureGap=4;jiggle=2;curveFitting=1;fontFamily=Verdana;fontSize=14;" vertex="1" parent="1">
          <mxGeometry x="487" y="3407" width="155" height="79" as="geometry" />
        </mxCell>
        <mxCell id="2wBlvmX4fhF8oeUSgGbd-182" style="edgeStyle=none;curved=1;rounded=0;sketch=1;hachureGap=4;jiggle=2;curveFitting=1;orthogonalLoop=1;jettySize=auto;html=1;exitX=0;exitY=0.5;exitDx=0;exitDy=0;fontFamily=Architects Daughter;fontSource=https%3A%2F%2Ffonts.googleapis.com%2Fcss%3Ffamily%3DArchitects%2BDaughter;fontSize=16;startSize=14;endArrow=open;endSize=14;sourcePerimeterSpacing=8;targetPerimeterSpacing=8;" edge="1" parent="1" source="2wBlvmX4fhF8oeUSgGbd-177">
          <mxGeometry relative="1" as="geometry">
            <mxPoint x="317.0211971507356" y="3188.6788904526657" as="targetPoint" />
          </mxGeometry>
        </mxCell>
        <mxCell id="2wBlvmX4fhF8oeUSgGbd-183" style="edgeStyle=none;curved=1;rounded=0;sketch=1;hachureGap=4;jiggle=2;curveFitting=1;orthogonalLoop=1;jettySize=auto;html=1;exitX=0;exitY=0.5;exitDx=0;exitDy=0;fontFamily=Architects Daughter;fontSource=https%3A%2F%2Ffonts.googleapis.com%2Fcss%3Ffamily%3DArchitects%2BDaughter;fontSize=16;startSize=14;endArrow=open;endSize=14;sourcePerimeterSpacing=8;targetPerimeterSpacing=8;" edge="1" parent="1" source="2wBlvmX4fhF8oeUSgGbd-177">
          <mxGeometry relative="1" as="geometry">
            <mxPoint x="326.0710592830883" y="3132.5702765969672" as="targetPoint" />
          </mxGeometry>
        </mxCell>
        <mxCell id="2wBlvmX4fhF8oeUSgGbd-177" value="&lt;h5 style=&quot;font-size: 14px;&quot;&gt;CONSUMER&lt;/h5&gt;" style="rounded=0;whiteSpace=wrap;html=1;sketch=1;hachureGap=4;jiggle=2;curveFitting=1;fontFamily=Verdana;fontSize=14;" vertex="1" parent="1">
          <mxGeometry x="677" y="3407" width="155" height="79" as="geometry" />
        </mxCell>
        <mxCell id="2wBlvmX4fhF8oeUSgGbd-185" value="&lt;h5 style=&quot;font-size: 14px;&quot;&gt;MSG&lt;/h5&gt;" style="rounded=0;whiteSpace=wrap;html=1;sketch=1;hachureGap=4;jiggle=2;curveFitting=1;fontFamily=Verdana;fontSize=14;fillColor=#6a00ff;fontColor=#ffffff;strokeColor=#3700CC;" vertex="1" parent="1">
          <mxGeometry x="491.5" y="2939.5" width="33" height="48" as="geometry" />
        </mxCell>
        <mxCell id="2wBlvmX4fhF8oeUSgGbd-186" value="&lt;h5 style=&quot;font-size: 14px;&quot;&gt;MSG&lt;/h5&gt;" style="rounded=0;whiteSpace=wrap;html=1;sketch=1;hachureGap=4;jiggle=2;curveFitting=1;fontFamily=Verdana;fontSize=14;fillColor=#6a00ff;fontColor=#ffffff;strokeColor=#3700CC;" vertex="1" parent="1">
          <mxGeometry x="493.5" y="3410" width="33" height="48" as="geometry" />
        </mxCell>
        <mxCell id="2wBlvmX4fhF8oeUSgGbd-187" value="&lt;h5 style=&quot;font-size: 14px;&quot;&gt;BROKER&lt;/h5&gt;" style="rounded=0;whiteSpace=wrap;html=1;sketch=1;hachureGap=4;jiggle=2;curveFitting=1;fontFamily=Verdana;fontSize=14;verticalAlign=top;" vertex="1" parent="1">
          <mxGeometry x="-91" y="3719" width="510" height="1088" as="geometry" />
        </mxCell>
        <mxCell id="2wBlvmX4fhF8oeUSgGbd-188" value="&lt;font face=&quot;Verdana&quot;&gt;TOPIC&lt;/font&gt;" style="whiteSpace=wrap;html=1;sketch=1;hachureGap=4;jiggle=2;curveFitting=1;fontFamily=Architects Daughter;fontSource=https%3A%2F%2Ffonts.googleapis.com%2Fcss%3Ffamily%3DArchitects%2BDaughter;horizontal=1;verticalAlign=top;" vertex="1" parent="1">
          <mxGeometry x="119" y="3800" width="251.5" height="331" as="geometry" />
        </mxCell>
        <mxCell id="2wBlvmX4fhF8oeUSgGbd-189" value="PRODUCER" style="rounded=0;whiteSpace=wrap;html=1;sketch=1;hachureGap=4;jiggle=2;curveFitting=1;fontFamily=Verdana;fontSize=14;" vertex="1" parent="1">
          <mxGeometry x="-312" y="3907" width="155" height="90" as="geometry" />
        </mxCell>
        <mxCell id="2wBlvmX4fhF8oeUSgGbd-192" value="&lt;h5 style=&quot;font-size: 14px;&quot;&gt;MSG&lt;/h5&gt;" style="rounded=0;whiteSpace=wrap;html=1;sketch=1;hachureGap=4;jiggle=2;curveFitting=1;fontFamily=Verdana;fontSize=14;fillColor=#6a00ff;fontColor=#ffffff;strokeColor=#3700CC;" vertex="1" parent="1">
          <mxGeometry x="-306" y="3907" width="33" height="48" as="geometry" />
        </mxCell>
        <mxCell id="2wBlvmX4fhF8oeUSgGbd-193" style="edgeStyle=none;curved=1;rounded=0;sketch=1;hachureGap=4;jiggle=2;curveFitting=1;orthogonalLoop=1;jettySize=auto;html=1;exitX=1;exitY=0.5;exitDx=0;exitDy=0;entryX=0;entryY=0.453;entryDx=0;entryDy=0;entryPerimeter=0;fontFamily=Architects Daughter;fontSource=https%3A%2F%2Ffonts.googleapis.com%2Fcss%3Ffamily%3DArchitects%2BDaughter;fontSize=16;startSize=14;endArrow=open;endSize=14;sourcePerimeterSpacing=8;targetPerimeterSpacing=8;" edge="1" parent="1" source="2wBlvmX4fhF8oeUSgGbd-189" target="2wBlvmX4fhF8oeUSgGbd-188">
          <mxGeometry relative="1" as="geometry" />
        </mxCell>
        <mxCell id="2wBlvmX4fhF8oeUSgGbd-194" value="&lt;h5 style=&quot;font-size: 14px;&quot;&gt;CONSUMER GROUP&lt;/h5&gt;" style="rounded=0;whiteSpace=wrap;html=1;sketch=1;hachureGap=4;jiggle=2;curveFitting=1;fontFamily=Verdana;fontSize=14;verticalAlign=top;" vertex="1" parent="1">
          <mxGeometry x="497" y="3714" width="387" height="444" as="geometry" />
        </mxCell>
        <mxCell id="2wBlvmX4fhF8oeUSgGbd-195" style="edgeStyle=none;curved=1;rounded=0;sketch=1;hachureGap=4;jiggle=2;curveFitting=1;orthogonalLoop=1;jettySize=auto;html=1;exitX=0;exitY=0.5;exitDx=0;exitDy=0;entryX=1;entryY=0.5;entryDx=0;entryDy=0;fontFamily=Architects Daughter;fontSource=https%3A%2F%2Ffonts.googleapis.com%2Fcss%3Ffamily%3DArchitects%2BDaughter;fontSize=16;startSize=14;endArrow=open;endSize=14;sourcePerimeterSpacing=8;targetPerimeterSpacing=8;" edge="1" parent="1" source="2wBlvmX4fhF8oeUSgGbd-196" target="2wBlvmX4fhF8oeUSgGbd-201">
          <mxGeometry relative="1" as="geometry" />
        </mxCell>
        <mxCell id="2wBlvmX4fhF8oeUSgGbd-196" value="&lt;h5 style=&quot;font-size: 14px;&quot;&gt;CONSUMER&lt;/h5&gt;" style="rounded=0;whiteSpace=wrap;html=1;sketch=1;hachureGap=4;jiggle=2;curveFitting=1;fontFamily=Verdana;fontSize=14;" vertex="1" parent="1">
          <mxGeometry x="515" y="3786" width="155" height="79" as="geometry" />
        </mxCell>
        <mxCell id="2wBlvmX4fhF8oeUSgGbd-197" style="edgeStyle=none;curved=1;rounded=0;sketch=1;hachureGap=4;jiggle=2;curveFitting=1;orthogonalLoop=1;jettySize=auto;html=1;exitX=0;exitY=0.5;exitDx=0;exitDy=0;entryX=1;entryY=0.5;entryDx=0;entryDy=0;fontFamily=Architects Daughter;fontSource=https%3A%2F%2Ffonts.googleapis.com%2Fcss%3Ffamily%3DArchitects%2BDaughter;fontSize=16;startSize=14;endArrow=open;endSize=14;sourcePerimeterSpacing=8;targetPerimeterSpacing=8;" edge="1" parent="1" source="2wBlvmX4fhF8oeUSgGbd-198" target="2wBlvmX4fhF8oeUSgGbd-202">
          <mxGeometry relative="1" as="geometry" />
        </mxCell>
        <mxCell id="2wBlvmX4fhF8oeUSgGbd-198" value="&lt;h5 style=&quot;font-size: 14px;&quot;&gt;CONSUMER&lt;/h5&gt;" style="rounded=0;whiteSpace=wrap;html=1;sketch=1;hachureGap=4;jiggle=2;curveFitting=1;fontFamily=Verdana;fontSize=14;" vertex="1" parent="1">
          <mxGeometry x="705" y="3786" width="155" height="79" as="geometry" />
        </mxCell>
        <mxCell id="2wBlvmX4fhF8oeUSgGbd-199" style="edgeStyle=none;curved=1;rounded=0;sketch=1;hachureGap=4;jiggle=2;curveFitting=1;orthogonalLoop=1;jettySize=auto;html=1;exitX=0;exitY=0.5;exitDx=0;exitDy=0;entryX=1;entryY=0.5;entryDx=0;entryDy=0;fontFamily=Architects Daughter;fontSource=https%3A%2F%2Ffonts.googleapis.com%2Fcss%3Ffamily%3DArchitects%2BDaughter;fontSize=16;startSize=14;endArrow=open;endSize=14;sourcePerimeterSpacing=8;targetPerimeterSpacing=8;" edge="1" parent="1" source="2wBlvmX4fhF8oeUSgGbd-200" target="2wBlvmX4fhF8oeUSgGbd-203">
          <mxGeometry relative="1" as="geometry" />
        </mxCell>
        <mxCell id="2wBlvmX4fhF8oeUSgGbd-200" value="&lt;h5 style=&quot;font-size: 14px;&quot;&gt;CONSUMER&lt;/h5&gt;" style="rounded=0;whiteSpace=wrap;html=1;sketch=1;hachureGap=4;jiggle=2;curveFitting=1;fontFamily=Verdana;fontSize=14;" vertex="1" parent="1">
          <mxGeometry x="514" y="3897" width="155" height="79" as="geometry" />
        </mxCell>
        <mxCell id="2wBlvmX4fhF8oeUSgGbd-201" value="PARTITION" style="rounded=0;whiteSpace=wrap;html=1;sketch=1;hachureGap=4;jiggle=2;curveFitting=1;fontFamily=Verdana;fontSize=14;" vertex="1" parent="1">
          <mxGeometry x="139.5" y="3838" width="209.5" height="49" as="geometry" />
        </mxCell>
        <mxCell id="2wBlvmX4fhF8oeUSgGbd-202" value="PARTITION" style="rounded=0;whiteSpace=wrap;html=1;sketch=1;hachureGap=4;jiggle=2;curveFitting=1;fontFamily=Verdana;fontSize=14;" vertex="1" parent="1">
          <mxGeometry x="140" y="3897" width="209.5" height="49" as="geometry" />
        </mxCell>
        <mxCell id="2wBlvmX4fhF8oeUSgGbd-203" value="PARTITION" style="rounded=0;whiteSpace=wrap;html=1;sketch=1;hachureGap=4;jiggle=2;curveFitting=1;fontFamily=Verdana;fontSize=14;" vertex="1" parent="1">
          <mxGeometry x="137.5" y="3960" width="209.5" height="49" as="geometry" />
        </mxCell>
        <mxCell id="2wBlvmX4fhF8oeUSgGbd-204" value="PARTITION" style="rounded=0;whiteSpace=wrap;html=1;sketch=1;hachureGap=4;jiggle=2;curveFitting=1;fontFamily=Verdana;fontSize=14;" vertex="1" parent="1">
          <mxGeometry x="137.5" y="4020" width="209.5" height="49" as="geometry" />
        </mxCell>
        <mxCell id="2wBlvmX4fhF8oeUSgGbd-205" value="&lt;h5 style=&quot;font-size: 14px;&quot;&gt;MSG&lt;/h5&gt;" style="rounded=0;whiteSpace=wrap;html=1;sketch=1;hachureGap=4;jiggle=2;curveFitting=1;fontFamily=Verdana;fontSize=14;fillColor=#6a00ff;fontColor=#ffffff;strokeColor=#3700CC;" vertex="1" parent="1">
          <mxGeometry x="152" y="3839.5" width="33" height="48" as="geometry" />
        </mxCell>
        <mxCell id="2wBlvmX4fhF8oeUSgGbd-206" style="edgeStyle=none;curved=1;rounded=0;sketch=1;hachureGap=4;jiggle=2;curveFitting=1;orthogonalLoop=1;jettySize=auto;html=1;exitX=0;exitY=0.5;exitDx=0;exitDy=0;entryX=1;entryY=0.5;entryDx=0;entryDy=0;fontFamily=Architects Daughter;fontSource=https%3A%2F%2Ffonts.googleapis.com%2Fcss%3Ffamily%3DArchitects%2BDaughter;fontSize=16;startSize=14;endArrow=open;endSize=14;sourcePerimeterSpacing=8;targetPerimeterSpacing=8;" edge="1" parent="1" source="2wBlvmX4fhF8oeUSgGbd-207" target="2wBlvmX4fhF8oeUSgGbd-204">
          <mxGeometry relative="1" as="geometry" />
        </mxCell>
        <mxCell id="2wBlvmX4fhF8oeUSgGbd-207" value="&lt;h5 style=&quot;font-size: 14px;&quot;&gt;CONSUMER&lt;/h5&gt;" style="rounded=0;whiteSpace=wrap;html=1;sketch=1;hachureGap=4;jiggle=2;curveFitting=1;fontFamily=Verdana;fontSize=14;" vertex="1" parent="1">
          <mxGeometry x="705" y="3899" width="155" height="79" as="geometry" />
        </mxCell>
        <mxCell id="2wBlvmX4fhF8oeUSgGbd-208" value="&lt;h5 style=&quot;font-size: 14px;&quot;&gt;CONSUMER GROUP&lt;/h5&gt;" style="rounded=0;whiteSpace=wrap;html=1;sketch=1;hachureGap=4;jiggle=2;curveFitting=1;fontFamily=Verdana;fontSize=14;verticalAlign=top;" vertex="1" parent="1">
          <mxGeometry x="497" y="4187" width="387" height="232" as="geometry" />
        </mxCell>
        <mxCell id="2wBlvmX4fhF8oeUSgGbd-209" style="edgeStyle=none;curved=1;rounded=0;sketch=1;hachureGap=4;jiggle=2;curveFitting=1;orthogonalLoop=1;jettySize=auto;html=1;exitX=0;exitY=0.5;exitDx=0;exitDy=0;entryX=1;entryY=0.5;entryDx=0;entryDy=0;fontFamily=Architects Daughter;fontSource=https%3A%2F%2Ffonts.googleapis.com%2Fcss%3Ffamily%3DArchitects%2BDaughter;fontSize=16;startSize=14;endArrow=open;endSize=14;sourcePerimeterSpacing=8;targetPerimeterSpacing=8;" edge="1" parent="1" source="2wBlvmX4fhF8oeUSgGbd-211" target="2wBlvmX4fhF8oeUSgGbd-201">
          <mxGeometry relative="1" as="geometry" />
        </mxCell>
        <mxCell id="2wBlvmX4fhF8oeUSgGbd-210" style="edgeStyle=none;curved=1;rounded=0;sketch=1;hachureGap=4;jiggle=2;curveFitting=1;orthogonalLoop=1;jettySize=auto;html=1;exitX=0;exitY=0.5;exitDx=0;exitDy=0;entryX=1;entryY=0.5;entryDx=0;entryDy=0;fontFamily=Architects Daughter;fontSource=https%3A%2F%2Ffonts.googleapis.com%2Fcss%3Ffamily%3DArchitects%2BDaughter;fontSize=16;startSize=14;endArrow=open;endSize=14;sourcePerimeterSpacing=8;targetPerimeterSpacing=8;" edge="1" parent="1" source="2wBlvmX4fhF8oeUSgGbd-211" target="2wBlvmX4fhF8oeUSgGbd-202">
          <mxGeometry relative="1" as="geometry" />
        </mxCell>
        <mxCell id="2wBlvmX4fhF8oeUSgGbd-211" value="&lt;h5 style=&quot;font-size: 14px;&quot;&gt;CONSUMER&lt;/h5&gt;" style="rounded=0;whiteSpace=wrap;html=1;sketch=1;hachureGap=4;jiggle=2;curveFitting=1;fontFamily=Verdana;fontSize=14;" vertex="1" parent="1">
          <mxGeometry x="515" y="4259" width="155" height="79" as="geometry" />
        </mxCell>
        <mxCell id="2wBlvmX4fhF8oeUSgGbd-212" style="edgeStyle=none;curved=1;rounded=0;sketch=1;hachureGap=4;jiggle=2;curveFitting=1;orthogonalLoop=1;jettySize=auto;html=1;exitX=0;exitY=0.5;exitDx=0;exitDy=0;fontFamily=Architects Daughter;fontSource=https%3A%2F%2Ffonts.googleapis.com%2Fcss%3Ffamily%3DArchitects%2BDaughter;fontSize=16;startSize=14;endArrow=open;endSize=14;sourcePerimeterSpacing=8;targetPerimeterSpacing=8;" edge="1" parent="1" source="2wBlvmX4fhF8oeUSgGbd-214">
          <mxGeometry relative="1" as="geometry">
            <mxPoint x="345.0211971507356" y="4040.6788904526657" as="targetPoint" />
          </mxGeometry>
        </mxCell>
        <mxCell id="2wBlvmX4fhF8oeUSgGbd-213" style="edgeStyle=none;curved=1;rounded=0;sketch=1;hachureGap=4;jiggle=2;curveFitting=1;orthogonalLoop=1;jettySize=auto;html=1;exitX=0;exitY=0.5;exitDx=0;exitDy=0;fontFamily=Architects Daughter;fontSource=https%3A%2F%2Ffonts.googleapis.com%2Fcss%3Ffamily%3DArchitects%2BDaughter;fontSize=16;startSize=14;endArrow=open;endSize=14;sourcePerimeterSpacing=8;targetPerimeterSpacing=8;" edge="1" parent="1" source="2wBlvmX4fhF8oeUSgGbd-214">
          <mxGeometry relative="1" as="geometry">
            <mxPoint x="354.0710592830883" y="3984.5702765969672" as="targetPoint" />
          </mxGeometry>
        </mxCell>
        <mxCell id="2wBlvmX4fhF8oeUSgGbd-214" value="&lt;h5 style=&quot;font-size: 14px;&quot;&gt;CONSUMER&lt;/h5&gt;" style="rounded=0;whiteSpace=wrap;html=1;sketch=1;hachureGap=4;jiggle=2;curveFitting=1;fontFamily=Verdana;fontSize=14;" vertex="1" parent="1">
          <mxGeometry x="705" y="4259" width="155" height="79" as="geometry" />
        </mxCell>
        <mxCell id="2wBlvmX4fhF8oeUSgGbd-215" value="&lt;h5 style=&quot;font-size: 14px;&quot;&gt;MSG&lt;/h5&gt;" style="rounded=0;whiteSpace=wrap;html=1;sketch=1;hachureGap=4;jiggle=2;curveFitting=1;fontFamily=Verdana;fontSize=14;fillColor=#6a00ff;fontColor=#ffffff;strokeColor=#3700CC;" vertex="1" parent="1">
          <mxGeometry x="519.5" y="3791.5" width="33" height="48" as="geometry" />
        </mxCell>
        <mxCell id="2wBlvmX4fhF8oeUSgGbd-216" value="&lt;h5 style=&quot;font-size: 14px;&quot;&gt;MSG&lt;/h5&gt;" style="rounded=0;whiteSpace=wrap;html=1;sketch=1;hachureGap=4;jiggle=2;curveFitting=1;fontFamily=Verdana;fontSize=14;fillColor=#6a00ff;fontColor=#ffffff;strokeColor=#3700CC;" vertex="1" parent="1">
          <mxGeometry x="521.5" y="4262" width="33" height="48" as="geometry" />
        </mxCell>
        <mxCell id="2wBlvmX4fhF8oeUSgGbd-217" value="&lt;font face=&quot;Verdana&quot;&gt;TOPIC&lt;/font&gt;" style="whiteSpace=wrap;html=1;sketch=1;hachureGap=4;jiggle=2;curveFitting=1;fontFamily=Architects Daughter;fontSource=https%3A%2F%2Ffonts.googleapis.com%2Fcss%3Ffamily%3DArchitects%2BDaughter;horizontal=1;verticalAlign=top;" vertex="1" parent="1">
          <mxGeometry x="31" y="4162" width="330" height="442" as="geometry" />
        </mxCell>
        <mxCell id="2wBlvmX4fhF8oeUSgGbd-218" value="PARTITION 0" style="rounded=0;whiteSpace=wrap;html=1;sketch=1;hachureGap=4;jiggle=2;curveFitting=1;fontFamily=Verdana;fontSize=14;verticalAlign=top;" vertex="1" parent="1">
          <mxGeometry x="53" y="4193" width="287" height="244" as="geometry" />
        </mxCell>
        <mxCell id="2wBlvmX4fhF8oeUSgGbd-219" value="SEGMENT" style="rounded=0;whiteSpace=wrap;html=1;sketch=1;hachureGap=4;jiggle=2;curveFitting=1;fontFamily=Verdana;fontSize=14;verticalAlign=top;" vertex="1" parent="1">
          <mxGeometry x="68" y="4233" width="260" height="99" as="geometry" />
        </mxCell>
        <mxCell id="2wBlvmX4fhF8oeUSgGbd-221" style="edgeStyle=none;curved=1;rounded=0;sketch=1;hachureGap=4;jiggle=2;curveFitting=1;orthogonalLoop=1;jettySize=auto;html=1;exitX=1;exitY=0.5;exitDx=0;exitDy=0;entryX=0;entryY=0.5;entryDx=0;entryDy=0;fontFamily=Architects Daughter;fontSource=https%3A%2F%2Ffonts.googleapis.com%2Fcss%3Ffamily%3DArchitects%2BDaughter;fontSize=16;startSize=14;endArrow=open;endSize=14;sourcePerimeterSpacing=8;targetPerimeterSpacing=8;" edge="1" parent="1" source="2wBlvmX4fhF8oeUSgGbd-220" target="2wBlvmX4fhF8oeUSgGbd-217">
          <mxGeometry relative="1" as="geometry" />
        </mxCell>
        <mxCell id="2wBlvmX4fhF8oeUSgGbd-220" value="PRODUCER" style="rounded=0;whiteSpace=wrap;html=1;sketch=1;hachureGap=4;jiggle=2;curveFitting=1;fontFamily=Verdana;fontSize=14;verticalAlign=top;" vertex="1" parent="1">
          <mxGeometry x="-651" y="4205.5" width="339" height="355" as="geometry" />
        </mxCell>
        <mxCell id="2wBlvmX4fhF8oeUSgGbd-223" value="&lt;h5 style=&quot;font-size: 14px;&quot;&gt;MSG&lt;/h5&gt;" style="rounded=0;whiteSpace=wrap;html=1;sketch=1;hachureGap=4;jiggle=2;curveFitting=1;fontFamily=Verdana;fontSize=14;fillColor=#6a00ff;fontColor=#ffffff;strokeColor=#3700CC;" vertex="1" parent="1">
          <mxGeometry x="73" y="4276" width="33" height="48" as="geometry" />
        </mxCell>
        <mxCell id="2wBlvmX4fhF8oeUSgGbd-224" value="&lt;h5 style=&quot;font-size: 14px;&quot;&gt;MSG&lt;/h5&gt;" style="rounded=0;whiteSpace=wrap;html=1;sketch=1;hachureGap=4;jiggle=2;curveFitting=1;fontFamily=Verdana;fontSize=14;fillColor=#6a00ff;fontColor=#ffffff;strokeColor=#3700CC;" vertex="1" parent="1">
          <mxGeometry x="115.5" y="4276.5" width="33" height="48" as="geometry" />
        </mxCell>
        <mxCell id="2wBlvmX4fhF8oeUSgGbd-225" value="&lt;h5 style=&quot;font-size: 14px;&quot;&gt;MSG&lt;/h5&gt;" style="rounded=0;whiteSpace=wrap;html=1;sketch=1;hachureGap=4;jiggle=2;curveFitting=1;fontFamily=Verdana;fontSize=14;fillColor=#6a00ff;fontColor=#ffffff;strokeColor=#3700CC;" vertex="1" parent="1">
          <mxGeometry x="156.5" y="4276" width="33" height="48" as="geometry" />
        </mxCell>
        <mxCell id="2wBlvmX4fhF8oeUSgGbd-226" value="&lt;h5 style=&quot;font-size: 14px;&quot;&gt;MSG&lt;/h5&gt;" style="rounded=0;whiteSpace=wrap;html=1;sketch=1;hachureGap=4;jiggle=2;curveFitting=1;fontFamily=Verdana;fontSize=14;fillColor=#6a00ff;fontColor=#ffffff;strokeColor=#3700CC;" vertex="1" parent="1">
          <mxGeometry x="197" y="4277" width="33" height="48" as="geometry" />
        </mxCell>
        <mxCell id="2wBlvmX4fhF8oeUSgGbd-227" value="SEGMENT" style="rounded=0;whiteSpace=wrap;html=1;sketch=1;hachureGap=4;jiggle=2;curveFitting=1;fontFamily=Verdana;fontSize=14;verticalAlign=top;" vertex="1" parent="1">
          <mxGeometry x="68" y="4338" width="260" height="80" as="geometry" />
        </mxCell>
        <mxCell id="2wBlvmX4fhF8oeUSgGbd-228" value="0" style="text;html=1;align=center;verticalAlign=middle;resizable=0;points=[];autosize=1;strokeColor=none;fillColor=none;fontSize=20;fontFamily=Architects Daughter;fontSource=https%3A%2F%2Ffonts.googleapis.com%2Fcss%3Ffamily%3DArchitects%2BDaughter;" vertex="1" parent="1">
          <mxGeometry x="72" y="4241" width="31" height="36" as="geometry" />
        </mxCell>
        <mxCell id="2wBlvmX4fhF8oeUSgGbd-229" value="1" style="text;html=1;align=center;verticalAlign=middle;resizable=0;points=[];autosize=1;strokeColor=none;fillColor=none;fontSize=20;fontFamily=Architects Daughter;fontSource=https%3A%2F%2Ffonts.googleapis.com%2Fcss%3Ffamily%3DArchitects%2BDaughter;" vertex="1" parent="1">
          <mxGeometry x="125.5" y="4243" width="21" height="36" as="geometry" />
        </mxCell>
        <mxCell id="2wBlvmX4fhF8oeUSgGbd-230" value="2" style="text;html=1;align=center;verticalAlign=middle;resizable=0;points=[];autosize=1;strokeColor=none;fillColor=none;fontSize=20;fontFamily=Architects Daughter;fontSource=https%3A%2F%2Ffonts.googleapis.com%2Fcss%3Ffamily%3DArchitects%2BDaughter;" vertex="1" parent="1">
          <mxGeometry x="159.5" y="4247" width="29" height="36" as="geometry" />
        </mxCell>
        <mxCell id="2wBlvmX4fhF8oeUSgGbd-232" value="3" style="text;html=1;align=center;verticalAlign=middle;resizable=0;points=[];autosize=1;strokeColor=none;fillColor=none;fontSize=20;fontFamily=Architects Daughter;fontSource=https%3A%2F%2Ffonts.googleapis.com%2Fcss%3Ffamily%3DArchitects%2BDaughter;" vertex="1" parent="1">
          <mxGeometry x="200.75" y="4247" width="28" height="36" as="geometry" />
        </mxCell>
        <mxCell id="2wBlvmX4fhF8oeUSgGbd-234" value="SERIALIZER" style="rounded=0;whiteSpace=wrap;html=1;sketch=1;hachureGap=4;jiggle=2;curveFitting=1;fontFamily=Verdana;fontSize=14;" vertex="1" parent="1">
          <mxGeometry x="-603" y="4255.5" width="209.5" height="49" as="geometry" />
        </mxCell>
        <mxCell id="2wBlvmX4fhF8oeUSgGbd-235" value="PARTITIONER" style="rounded=0;whiteSpace=wrap;html=1;sketch=1;hachureGap=4;jiggle=2;curveFitting=1;fontFamily=Verdana;fontSize=14;" vertex="1" parent="1">
          <mxGeometry x="-606" y="4326.5" width="209.5" height="49" as="geometry" />
        </mxCell>
        <mxCell id="2wBlvmX4fhF8oeUSgGbd-236" value="P0" style="rounded=0;whiteSpace=wrap;html=1;sketch=1;hachureGap=4;jiggle=2;curveFitting=1;fontFamily=Verdana;fontSize=14;" vertex="1" parent="1">
          <mxGeometry x="-642" y="4418.5" width="103" height="105" as="geometry" />
        </mxCell>
        <mxCell id="2wBlvmX4fhF8oeUSgGbd-237" value="PARTITION 1" style="rounded=0;whiteSpace=wrap;html=1;sketch=1;hachureGap=4;jiggle=2;curveFitting=1;fontFamily=Verdana;fontSize=14;" vertex="1" parent="1">
          <mxGeometry x="53" y="4454" width="286" height="49" as="geometry" />
        </mxCell>
        <mxCell id="2wBlvmX4fhF8oeUSgGbd-238" value="PARTITION 2" style="rounded=0;whiteSpace=wrap;html=1;sketch=1;hachureGap=4;jiggle=2;curveFitting=1;fontFamily=Verdana;fontSize=14;" vertex="1" parent="1">
          <mxGeometry x="53.5" y="4522" width="286" height="49" as="geometry" />
        </mxCell>
        <mxCell id="2wBlvmX4fhF8oeUSgGbd-239" value="P1" style="rounded=0;whiteSpace=wrap;html=1;sketch=1;hachureGap=4;jiggle=2;curveFitting=1;fontFamily=Verdana;fontSize=14;" vertex="1" parent="1">
          <mxGeometry x="-527.5" y="4418.5" width="92" height="107" as="geometry" />
        </mxCell>
        <mxCell id="2wBlvmX4fhF8oeUSgGbd-240" value="P2" style="rounded=0;whiteSpace=wrap;html=1;sketch=1;hachureGap=4;jiggle=2;curveFitting=1;fontFamily=Verdana;fontSize=14;" vertex="1" parent="1">
          <mxGeometry x="-419" y="4418.5" width="87" height="104" as="geometry" />
        </mxCell>
        <mxCell id="2wBlvmX4fhF8oeUSgGbd-222" value="&lt;h5 style=&quot;font-size: 14px;&quot;&gt;MSG&lt;/h5&gt;" style="rounded=0;whiteSpace=wrap;html=1;sketch=1;hachureGap=4;jiggle=2;curveFitting=1;fontFamily=Verdana;fontSize=14;fillColor=#6a00ff;fontColor=#ffffff;strokeColor=#3700CC;" vertex="1" parent="1">
          <mxGeometry x="-636" y="4418.5" width="33" height="48" as="geometry" />
        </mxCell>
        <mxCell id="2wBlvmX4fhF8oeUSgGbd-241" value="&lt;font face=&quot;Verdana&quot;&gt;ACK&lt;/font&gt;&lt;div&gt;&lt;font face=&quot;Verdana&quot;&gt;0&lt;/font&gt;&lt;/div&gt;&lt;div&gt;&lt;font face=&quot;Verdana&quot;&gt;1&lt;/font&gt;&lt;/div&gt;&lt;div&gt;&lt;font face=&quot;Verdana&quot;&gt;ALL&lt;/font&gt;&lt;/div&gt;" style="text;html=1;align=center;verticalAlign=middle;resizable=0;points=[];autosize=1;strokeColor=none;fillColor=none;fontSize=20;fontFamily=Architects Daughter;fontSource=https%3A%2F%2Ffonts.googleapis.com%2Fcss%3Ffamily%3DArchitects%2BDaughter;" vertex="1" parent="1">
          <mxGeometry x="-210" y="4247" width="59" height="116" as="geometry" />
        </mxCell>
        <mxCell id="2wBlvmX4fhF8oeUSgGbd-242" value="&lt;h5 style=&quot;font-size: 14px;&quot;&gt;CONSUMER GROUP&lt;/h5&gt;" style="rounded=0;whiteSpace=wrap;html=1;sketch=1;hachureGap=4;jiggle=2;curveFitting=1;fontFamily=Verdana;fontSize=14;verticalAlign=top;" vertex="1" parent="1">
          <mxGeometry x="493.5" y="4458" width="387" height="319" as="geometry" />
        </mxCell>
        <mxCell id="2wBlvmX4fhF8oeUSgGbd-246" style="edgeStyle=none;curved=1;rounded=0;sketch=1;hachureGap=4;jiggle=2;curveFitting=1;orthogonalLoop=1;jettySize=auto;html=1;exitX=0;exitY=0.5;exitDx=0;exitDy=0;entryX=1;entryY=0.5;entryDx=0;entryDy=0;fontFamily=Architects Daughter;fontSource=https%3A%2F%2Ffonts.googleapis.com%2Fcss%3Ffamily%3DArchitects%2BDaughter;fontSize=16;startSize=14;endArrow=open;endSize=14;sourcePerimeterSpacing=8;targetPerimeterSpacing=8;" edge="1" parent="1" source="2wBlvmX4fhF8oeUSgGbd-243" target="2wBlvmX4fhF8oeUSgGbd-218">
          <mxGeometry relative="1" as="geometry" />
        </mxCell>
        <mxCell id="2wBlvmX4fhF8oeUSgGbd-247" style="edgeStyle=none;curved=1;rounded=0;sketch=1;hachureGap=4;jiggle=2;curveFitting=1;orthogonalLoop=1;jettySize=auto;html=1;exitX=0;exitY=0.5;exitDx=0;exitDy=0;entryX=1;entryY=0.5;entryDx=0;entryDy=0;fontFamily=Architects Daughter;fontSource=https%3A%2F%2Ffonts.googleapis.com%2Fcss%3Ffamily%3DArchitects%2BDaughter;fontSize=16;startSize=14;endArrow=open;endSize=14;sourcePerimeterSpacing=8;targetPerimeterSpacing=8;" edge="1" parent="1" source="2wBlvmX4fhF8oeUSgGbd-243" target="2wBlvmX4fhF8oeUSgGbd-237">
          <mxGeometry relative="1" as="geometry" />
        </mxCell>
        <mxCell id="2wBlvmX4fhF8oeUSgGbd-243" value="&lt;h5 style=&quot;font-size: 14px;&quot;&gt;CONSUMER&lt;/h5&gt;" style="rounded=0;whiteSpace=wrap;html=1;sketch=1;hachureGap=4;jiggle=2;curveFitting=1;fontFamily=Verdana;fontSize=14;" vertex="1" parent="1">
          <mxGeometry x="511.5" y="4530" width="155" height="79" as="geometry" />
        </mxCell>
        <mxCell id="2wBlvmX4fhF8oeUSgGbd-248" style="edgeStyle=none;curved=1;rounded=0;sketch=1;hachureGap=4;jiggle=2;curveFitting=1;orthogonalLoop=1;jettySize=auto;html=1;exitX=0;exitY=0.5;exitDx=0;exitDy=0;entryX=1;entryY=0.5;entryDx=0;entryDy=0;fontFamily=Architects Daughter;fontSource=https%3A%2F%2Ffonts.googleapis.com%2Fcss%3Ffamily%3DArchitects%2BDaughter;fontSize=16;startSize=14;endArrow=open;endSize=14;sourcePerimeterSpacing=8;targetPerimeterSpacing=8;" edge="1" parent="1" source="2wBlvmX4fhF8oeUSgGbd-244" target="2wBlvmX4fhF8oeUSgGbd-238">
          <mxGeometry relative="1" as="geometry" />
        </mxCell>
        <mxCell id="2wBlvmX4fhF8oeUSgGbd-244" value="&lt;h5 style=&quot;font-size: 14px;&quot;&gt;CONSUMER&lt;/h5&gt;" style="rounded=0;whiteSpace=wrap;html=1;sketch=1;hachureGap=4;jiggle=2;curveFitting=1;fontFamily=Verdana;fontSize=14;" vertex="1" parent="1">
          <mxGeometry x="511.5" y="4628" width="155" height="79" as="geometry" />
        </mxCell>
        <mxCell id="2wBlvmX4fhF8oeUSgGbd-249" value="&lt;div&gt;Partition 0&lt;/div&gt;ofset&lt;div&gt;&lt;br&gt;&lt;/div&gt;" style="text;html=1;align=center;verticalAlign=middle;resizable=0;points=[];autosize=1;strokeColor=none;fillColor=none;fontSize=20;fontFamily=Architects Daughter;fontSource=https%3A%2F%2Ffonts.googleapis.com%2Fcss%3Ffamily%3DArchitects%2BDaughter;" vertex="1" parent="1">
          <mxGeometry x="696.5" y="4516" width="116" height="84" as="geometry" />
        </mxCell>
        <mxCell id="2wBlvmX4fhF8oeUSgGbd-250" value="&lt;font face=&quot;Verdana&quot;&gt;2&lt;/font&gt;" style="text;html=1;align=center;verticalAlign=middle;resizable=0;points=[];autosize=1;strokeColor=none;fillColor=none;fontSize=20;fontFamily=Architects Daughter;fontSource=https%3A%2F%2Ffonts.googleapis.com%2Fcss%3Ffamily%3DArchitects%2BDaughter;" vertex="1" parent="1">
          <mxGeometry x="737" y="4571" width="31" height="38" as="geometry" />
        </mxCell>
        <mxCell id="2wBlvmX4fhF8oeUSgGbd-251" value="earliest&lt;div&gt;latest&lt;/div&gt;&lt;div&gt;offset&lt;/div&gt;&lt;div&gt;exact&lt;/div&gt;&lt;div&gt;&lt;br&gt;&lt;/div&gt;" style="text;html=1;align=center;verticalAlign=middle;resizable=0;points=[];autosize=1;strokeColor=none;fillColor=none;fontSize=20;fontFamily=Architects Daughter;fontSource=https%3A%2F%2Ffonts.googleapis.com%2Fcss%3Ffamily%3DArchitects%2BDaughter;" vertex="1" parent="1">
          <mxGeometry x="919" y="4496" width="85" height="132" as="geometry" />
        </mxCell>
        <mxCell id="2wBlvmX4fhF8oeUSgGbd-252" value="MESSAGE" style="whiteSpace=wrap;html=1;sketch=1;hachureGap=4;jiggle=2;curveFitting=1;fontFamily=Verdana;verticalAlign=top;" vertex="1" parent="1">
          <mxGeometry x="-857" y="4101" width="227" height="250" as="geometry" />
        </mxCell>
        <mxCell id="2wBlvmX4fhF8oeUSgGbd-253" value="HEADER" style="whiteSpace=wrap;html=1;sketch=1;hachureGap=4;jiggle=2;curveFitting=1;fontFamily=Verdana;verticalAlign=top;fillColor=#d80073;fontColor=#ffffff;strokeColor=#A50040;" vertex="1" parent="1">
          <mxGeometry x="-839" y="4129" width="188" height="27" as="geometry" />
        </mxCell>
        <mxCell id="2wBlvmX4fhF8oeUSgGbd-254" value="KEY" style="whiteSpace=wrap;html=1;sketch=1;hachureGap=4;jiggle=2;curveFitting=1;fontFamily=Verdana;verticalAlign=top;fillColor=#d80073;fontColor=#ffffff;strokeColor=#A50040;" vertex="1" parent="1">
          <mxGeometry x="-839" y="4162" width="188" height="27" as="geometry" />
        </mxCell>
        <mxCell id="2wBlvmX4fhF8oeUSgGbd-255" value="VALUE" style="whiteSpace=wrap;html=1;sketch=1;hachureGap=4;jiggle=2;curveFitting=1;fontFamily=Verdana;verticalAlign=top;fillColor=#008a00;fontColor=#ffffff;strokeColor=#005700;" vertex="1" parent="1">
          <mxGeometry x="-839" y="4272.5" width="188" height="27" as="geometry" />
        </mxCell>
        <mxCell id="2wBlvmX4fhF8oeUSgGbd-256" value="PARTITION" style="whiteSpace=wrap;html=1;sketch=1;hachureGap=4;jiggle=2;curveFitting=1;fontFamily=Verdana;verticalAlign=top;fillColor=#d80073;fontColor=#ffffff;strokeColor=#A50040;" vertex="1" parent="1">
          <mxGeometry x="-839" y="4235" width="188" height="27" as="geometry" />
        </mxCell>
        <mxCell id="2wBlvmX4fhF8oeUSgGbd-257" value="TOPIC" style="whiteSpace=wrap;html=1;sketch=1;hachureGap=4;jiggle=2;curveFitting=1;fontFamily=Verdana;verticalAlign=top;fillColor=#008a00;fontColor=#ffffff;strokeColor=#005700;" vertex="1" parent="1">
          <mxGeometry x="-839" y="4197" width="188" height="27" as="geometry" />
        </mxCell>
        <mxCell id="2wBlvmX4fhF8oeUSgGbd-280" value="&lt;h5 style=&quot;font-size: 14px;&quot;&gt;BROKER 1&lt;/h5&gt;" style="rounded=0;whiteSpace=wrap;html=1;sketch=1;hachureGap=4;jiggle=2;curveFitting=1;fontFamily=Verdana;fontSize=14;verticalAlign=top;" vertex="1" parent="1">
          <mxGeometry x="-144" y="4943" width="510" height="498" as="geometry" />
        </mxCell>
        <mxCell id="2wBlvmX4fhF8oeUSgGbd-281" value="&lt;font face=&quot;Verdana&quot;&gt;TOPIC&lt;/font&gt;" style="whiteSpace=wrap;html=1;sketch=1;hachureGap=4;jiggle=2;curveFitting=1;fontFamily=Architects Daughter;fontSource=https%3A%2F%2Ffonts.googleapis.com%2Fcss%3Ffamily%3DArchitects%2BDaughter;horizontal=1;verticalAlign=top;" vertex="1" parent="1">
          <mxGeometry x="7.5" y="5026.5" width="251.5" height="331" as="geometry" />
        </mxCell>
        <mxCell id="2wBlvmX4fhF8oeUSgGbd-283" value="PARTITION 0" style="rounded=0;whiteSpace=wrap;html=1;sketch=1;hachureGap=4;jiggle=2;curveFitting=1;fontFamily=Verdana;fontSize=14;fillColor=#008a00;fontColor=#ffffff;strokeColor=#005700;" vertex="1" parent="1">
          <mxGeometry x="28.5" y="5064" width="209.5" height="49" as="geometry" />
        </mxCell>
        <mxCell id="2wBlvmX4fhF8oeUSgGbd-309" value="&lt;h5 style=&quot;font-size: 14px;&quot;&gt;BROKER 2&lt;/h5&gt;" style="rounded=0;whiteSpace=wrap;html=1;sketch=1;hachureGap=4;jiggle=2;curveFitting=1;fontFamily=Verdana;fontSize=14;verticalAlign=top;" vertex="1" parent="1">
          <mxGeometry x="389" y="4943" width="510" height="498" as="geometry" />
        </mxCell>
        <mxCell id="2wBlvmX4fhF8oeUSgGbd-310" value="&lt;font face=&quot;Verdana&quot;&gt;TOPIC&lt;/font&gt;" style="whiteSpace=wrap;html=1;sketch=1;hachureGap=4;jiggle=2;curveFitting=1;fontFamily=Architects Daughter;fontSource=https%3A%2F%2Ffonts.googleapis.com%2Fcss%3Ffamily%3DArchitects%2BDaughter;horizontal=1;verticalAlign=top;" vertex="1" parent="1">
          <mxGeometry x="540.5" y="5026.5" width="251.5" height="331" as="geometry" />
        </mxCell>
        <mxCell id="2wBlvmX4fhF8oeUSgGbd-315" value="&lt;h5 style=&quot;font-size: 14px;&quot;&gt;BROKER 3&lt;/h5&gt;" style="rounded=0;whiteSpace=wrap;html=1;sketch=1;hachureGap=4;jiggle=2;curveFitting=1;fontFamily=Verdana;fontSize=14;verticalAlign=top;" vertex="1" parent="1">
          <mxGeometry x="-139.5" y="5470" width="510" height="498" as="geometry" />
        </mxCell>
        <mxCell id="2wBlvmX4fhF8oeUSgGbd-316" value="&lt;font face=&quot;Verdana&quot;&gt;TOPIC&lt;/font&gt;" style="whiteSpace=wrap;html=1;sketch=1;hachureGap=4;jiggle=2;curveFitting=1;fontFamily=Architects Daughter;fontSource=https%3A%2F%2Ffonts.googleapis.com%2Fcss%3Ffamily%3DArchitects%2BDaughter;horizontal=1;verticalAlign=top;" vertex="1" parent="1">
          <mxGeometry x="12" y="5553.5" width="251.5" height="331" as="geometry" />
        </mxCell>
        <mxCell id="2wBlvmX4fhF8oeUSgGbd-321" value="&lt;h5 style=&quot;font-size: 14px;&quot;&gt;BROKER 4&lt;/h5&gt;" style="rounded=0;whiteSpace=wrap;html=1;sketch=1;hachureGap=4;jiggle=2;curveFitting=1;fontFamily=Verdana;fontSize=14;verticalAlign=top;" vertex="1" parent="1">
          <mxGeometry x="392" y="5473" width="510" height="498" as="geometry" />
        </mxCell>
        <mxCell id="2wBlvmX4fhF8oeUSgGbd-322" value="&lt;font face=&quot;Verdana&quot;&gt;TOPIC&lt;/font&gt;" style="whiteSpace=wrap;html=1;sketch=1;hachureGap=4;jiggle=2;curveFitting=1;fontFamily=Architects Daughter;fontSource=https%3A%2F%2Ffonts.googleapis.com%2Fcss%3Ffamily%3DArchitects%2BDaughter;horizontal=1;verticalAlign=top;" vertex="1" parent="1">
          <mxGeometry x="543.5" y="5556.5" width="251.5" height="331" as="geometry" />
        </mxCell>
        <mxCell id="2wBlvmX4fhF8oeUSgGbd-327" value="PARTITION 0" style="rounded=0;whiteSpace=wrap;html=1;sketch=1;hachureGap=4;jiggle=2;curveFitting=1;fontFamily=Verdana;fontSize=14;fillColor=#a20025;fontColor=#ffffff;strokeColor=#6F0000;" vertex="1" parent="1">
          <mxGeometry x="564.5" y="5064" width="209.5" height="49" as="geometry" />
        </mxCell>
        <mxCell id="2wBlvmX4fhF8oeUSgGbd-328" value="PARTITION 0" style="rounded=0;whiteSpace=wrap;html=1;sketch=1;hachureGap=4;jiggle=2;curveFitting=1;fontFamily=Verdana;fontSize=14;fillColor=#a20025;fontColor=#ffffff;strokeColor=#6F0000;" vertex="1" parent="1">
          <mxGeometry x="33" y="5601" width="209.5" height="49" as="geometry" />
        </mxCell>
        <mxCell id="2wBlvmX4fhF8oeUSgGbd-329" value="PARTITION 1" style="rounded=0;whiteSpace=wrap;html=1;sketch=1;hachureGap=4;jiggle=2;curveFitting=1;fontFamily=Verdana;fontSize=14;fillColor=#008a00;fontColor=#ffffff;strokeColor=#005700;" vertex="1" parent="1">
          <mxGeometry x="564.5" y="5126" width="209.5" height="49" as="geometry" />
        </mxCell>
        <mxCell id="2wBlvmX4fhF8oeUSgGbd-330" value="PARTITION 1" style="rounded=0;whiteSpace=wrap;html=1;sketch=1;hachureGap=4;jiggle=2;curveFitting=1;fontFamily=Verdana;fontSize=14;fillColor=#a20025;fontColor=#ffffff;strokeColor=#6F0000;" vertex="1" parent="1">
          <mxGeometry x="31.25" y="5670" width="209.5" height="49" as="geometry" />
        </mxCell>
        <mxCell id="2wBlvmX4fhF8oeUSgGbd-331" value="PARTITION 1" style="rounded=0;whiteSpace=wrap;html=1;sketch=1;hachureGap=4;jiggle=2;curveFitting=1;fontFamily=Verdana;fontSize=14;fillColor=#a20025;fontColor=#ffffff;strokeColor=#6F0000;" vertex="1" parent="1">
          <mxGeometry x="567" y="5601" width="209.5" height="49" as="geometry" />
        </mxCell>
        <mxCell id="2wBlvmX4fhF8oeUSgGbd-332" value="PARTITION 2" style="rounded=0;whiteSpace=wrap;html=1;sketch=1;hachureGap=4;jiggle=2;curveFitting=1;fontFamily=Verdana;fontSize=14;fillColor=#008a00;fontColor=#ffffff;strokeColor=#005700;" vertex="1" parent="1">
          <mxGeometry x="35.75" y="5739" width="209.5" height="49" as="geometry" />
        </mxCell>
        <mxCell id="2wBlvmX4fhF8oeUSgGbd-333" value="PARTITION 2" style="rounded=0;whiteSpace=wrap;html=1;sketch=1;hachureGap=4;jiggle=2;curveFitting=1;fontFamily=Verdana;fontSize=14;fillColor=#a20025;fontColor=#ffffff;strokeColor=#6F0000;" vertex="1" parent="1">
          <mxGeometry x="567" y="5664" width="209.5" height="49" as="geometry" />
        </mxCell>
        <mxCell id="2wBlvmX4fhF8oeUSgGbd-334" value="PARTITION 2" style="rounded=0;whiteSpace=wrap;html=1;sketch=1;hachureGap=4;jiggle=2;curveFitting=1;fontFamily=Verdana;fontSize=14;fillColor=#a20025;fontColor=#ffffff;strokeColor=#6F0000;" vertex="1" parent="1">
          <mxGeometry x="31" y="5126" width="209.5" height="49" as="geometry" />
        </mxCell>
        <mxCell id="2wBlvmX4fhF8oeUSgGbd-335" value="PARTITION 3" style="rounded=0;whiteSpace=wrap;html=1;sketch=1;hachureGap=4;jiggle=2;curveFitting=1;fontFamily=Verdana;fontSize=14;fillColor=#008a00;fontColor=#ffffff;strokeColor=#005700;" vertex="1" parent="1">
          <mxGeometry x="567" y="5727" width="209.5" height="49" as="geometry" />
        </mxCell>
        <mxCell id="2wBlvmX4fhF8oeUSgGbd-336" value="PARTITION 3" style="rounded=0;whiteSpace=wrap;html=1;sketch=1;hachureGap=4;jiggle=2;curveFitting=1;fontFamily=Verdana;fontSize=14;fillColor=#a20025;fontColor=#ffffff;strokeColor=#6F0000;" vertex="1" parent="1">
          <mxGeometry x="33" y="5193" width="209.5" height="49" as="geometry" />
        </mxCell>
        <mxCell id="2wBlvmX4fhF8oeUSgGbd-337" value="PARTITION 3" style="rounded=0;whiteSpace=wrap;html=1;sketch=1;hachureGap=4;jiggle=2;curveFitting=1;fontFamily=Verdana;fontSize=14;fillColor=#a20025;fontColor=#ffffff;strokeColor=#6F0000;" vertex="1" parent="1">
          <mxGeometry x="564.5" y="5193" width="209.5" height="49" as="geometry" />
        </mxCell>
        <mxCell id="2wBlvmX4fhF8oeUSgGbd-338" value="PARTITION 4" style="rounded=0;whiteSpace=wrap;html=1;sketch=1;hachureGap=4;jiggle=2;curveFitting=1;fontFamily=Verdana;fontSize=14;fillColor=#008a00;fontColor=#ffffff;strokeColor=#005700;" vertex="1" parent="1">
          <mxGeometry x="35.75" y="5255" width="209.5" height="49" as="geometry" />
        </mxCell>
        <mxCell id="2wBlvmX4fhF8oeUSgGbd-339" value="PARTITION 4" style="rounded=0;whiteSpace=wrap;html=1;sketch=1;hachureGap=4;jiggle=2;curveFitting=1;fontFamily=Verdana;fontSize=14;fillColor=#a20025;fontColor=#ffffff;strokeColor=#6F0000;" vertex="1" parent="1">
          <mxGeometry x="567" y="5263" width="209.5" height="49" as="geometry" />
        </mxCell>
        <mxCell id="2wBlvmX4fhF8oeUSgGbd-340" value="PARTITION 4" style="rounded=0;whiteSpace=wrap;html=1;sketch=1;hachureGap=4;jiggle=2;curveFitting=1;fontFamily=Verdana;fontSize=14;fillColor=#a20025;fontColor=#ffffff;strokeColor=#6F0000;" vertex="1" parent="1">
          <mxGeometry x="40" y="5808" width="209.5" height="49" as="geometry" />
        </mxCell>
        <mxCell id="2wBlvmX4fhF8oeUSgGbd-342" style="edgeStyle=none;curved=1;rounded=0;sketch=1;hachureGap=4;jiggle=2;curveFitting=1;orthogonalLoop=1;jettySize=auto;html=1;exitX=1;exitY=0.5;exitDx=0;exitDy=0;entryX=0;entryY=0.5;entryDx=0;entryDy=0;fontFamily=Architects Daughter;fontSource=https%3A%2F%2Ffonts.googleapis.com%2Fcss%3Ffamily%3DArchitects%2BDaughter;fontSize=16;startSize=14;endArrow=open;endSize=14;sourcePerimeterSpacing=8;targetPerimeterSpacing=8;" edge="1" parent="1" source="2wBlvmX4fhF8oeUSgGbd-341" target="2wBlvmX4fhF8oeUSgGbd-302">
          <mxGeometry relative="1" as="geometry" />
        </mxCell>
        <mxCell id="2wBlvmX4fhF8oeUSgGbd-341" value="PRODUCER" style="whiteSpace=wrap;html=1;sketch=1;hachureGap=4;jiggle=2;curveFitting=1;fontFamily=Architects Daughter;fontSource=https%3A%2F%2Ffonts.googleapis.com%2Fcss%3Ffamily%3DArchitects%2BDaughter;" vertex="1" parent="1">
          <mxGeometry x="-722" y="5385" width="248" height="178" as="geometry" />
        </mxCell>
        <mxCell id="2wBlvmX4fhF8oeUSgGbd-343" value="&lt;h5 style=&quot;font-size: 14px;&quot;&gt;MSG&lt;/h5&gt;" style="rounded=0;whiteSpace=wrap;html=1;sketch=1;hachureGap=4;jiggle=2;curveFitting=1;fontFamily=Verdana;fontSize=14;fillColor=#6a00ff;fontColor=#ffffff;strokeColor=#3700CC;" vertex="1" parent="1">
          <mxGeometry x="28.5" y="5282" width="33" height="48" as="geometry" />
        </mxCell>
        <mxCell id="2wBlvmX4fhF8oeUSgGbd-344" value="&lt;h5 style=&quot;font-size: 14px;&quot;&gt;MSG&lt;/h5&gt;" style="rounded=0;whiteSpace=wrap;html=1;sketch=1;hachureGap=4;jiggle=2;curveFitting=1;fontFamily=Verdana;fontSize=14;fillColor=#6a00ff;fontColor=#ffffff;strokeColor=#3700CC;" vertex="1" parent="1">
          <mxGeometry x="552.5" y="5290" width="33" height="48" as="geometry" />
        </mxCell>
        <mxCell id="2wBlvmX4fhF8oeUSgGbd-345" value="&lt;h5 style=&quot;font-size: 14px;&quot;&gt;MSG&lt;/h5&gt;" style="rounded=0;whiteSpace=wrap;html=1;sketch=1;hachureGap=4;jiggle=2;curveFitting=1;fontFamily=Verdana;fontSize=14;fillColor=#6a00ff;fontColor=#ffffff;strokeColor=#3700CC;" vertex="1" parent="1">
          <mxGeometry x="28.5" y="5829" width="33" height="48" as="geometry" />
        </mxCell>
        <mxCell id="2wBlvmX4fhF8oeUSgGbd-346" value="&lt;h5 style=&quot;font-size: 14px;&quot;&gt;KAFKA CLUSTER&lt;/h5&gt;" style="rounded=0;whiteSpace=wrap;html=1;sketch=1;hachureGap=4;jiggle=2;curveFitting=1;fontFamily=Verdana;fontSize=14;verticalAlign=top;" vertex="1" parent="1">
          <mxGeometry x="-210" y="6103" width="1167" height="1188" as="geometry" />
        </mxCell>
        <mxCell id="2wBlvmX4fhF8oeUSgGbd-347" value="&lt;h5 style=&quot;font-size: 14px;&quot;&gt;BROKER 1&lt;/h5&gt;" style="rounded=0;whiteSpace=wrap;html=1;sketch=1;hachureGap=4;jiggle=2;curveFitting=1;fontFamily=Verdana;fontSize=14;verticalAlign=top;" vertex="1" parent="1">
          <mxGeometry x="-141" y="6162" width="510" height="498" as="geometry" />
        </mxCell>
        <mxCell id="2wBlvmX4fhF8oeUSgGbd-348" value="&lt;font face=&quot;Verdana&quot;&gt;TOPIC&lt;/font&gt;" style="whiteSpace=wrap;html=1;sketch=1;hachureGap=4;jiggle=2;curveFitting=1;fontFamily=Architects Daughter;fontSource=https%3A%2F%2Ffonts.googleapis.com%2Fcss%3Ffamily%3DArchitects%2BDaughter;horizontal=1;verticalAlign=top;" vertex="1" parent="1">
          <mxGeometry x="10.5" y="6245.5" width="251.5" height="331" as="geometry" />
        </mxCell>
        <mxCell id="2wBlvmX4fhF8oeUSgGbd-349" value="PARTITION 0" style="rounded=0;whiteSpace=wrap;html=1;sketch=1;hachureGap=4;jiggle=2;curveFitting=1;fontFamily=Verdana;fontSize=14;fillColor=#008a00;fontColor=#ffffff;strokeColor=#005700;" vertex="1" parent="1">
          <mxGeometry x="31.5" y="6283" width="209.5" height="49" as="geometry" />
        </mxCell>
        <mxCell id="2wBlvmX4fhF8oeUSgGbd-350" value="&lt;h5 style=&quot;font-size: 14px;&quot;&gt;BROKER 2&lt;/h5&gt;" style="rounded=0;whiteSpace=wrap;html=1;sketch=1;hachureGap=4;jiggle=2;curveFitting=1;fontFamily=Verdana;fontSize=14;verticalAlign=top;" vertex="1" parent="1">
          <mxGeometry x="392" y="6162" width="510" height="498" as="geometry" />
        </mxCell>
        <mxCell id="2wBlvmX4fhF8oeUSgGbd-351" value="&lt;font face=&quot;Verdana&quot;&gt;TOPIC&lt;/font&gt;" style="whiteSpace=wrap;html=1;sketch=1;hachureGap=4;jiggle=2;curveFitting=1;fontFamily=Architects Daughter;fontSource=https%3A%2F%2Ffonts.googleapis.com%2Fcss%3Ffamily%3DArchitects%2BDaughter;horizontal=1;verticalAlign=top;" vertex="1" parent="1">
          <mxGeometry x="543.5" y="6245.5" width="251.5" height="331" as="geometry" />
        </mxCell>
        <mxCell id="2wBlvmX4fhF8oeUSgGbd-352" value="&lt;h5 style=&quot;font-size: 14px;&quot;&gt;BROKER 3&lt;/h5&gt;" style="rounded=0;whiteSpace=wrap;html=1;sketch=1;hachureGap=4;jiggle=2;curveFitting=1;fontFamily=Verdana;fontSize=14;verticalAlign=top;" vertex="1" parent="1">
          <mxGeometry x="-136.5" y="6689" width="510" height="498" as="geometry" />
        </mxCell>
        <mxCell id="2wBlvmX4fhF8oeUSgGbd-353" value="&lt;font face=&quot;Verdana&quot;&gt;TOPIC&lt;/font&gt;" style="whiteSpace=wrap;html=1;sketch=1;hachureGap=4;jiggle=2;curveFitting=1;fontFamily=Architects Daughter;fontSource=https%3A%2F%2Ffonts.googleapis.com%2Fcss%3Ffamily%3DArchitects%2BDaughter;horizontal=1;verticalAlign=top;" vertex="1" parent="1">
          <mxGeometry x="15" y="6772.5" width="251.5" height="331" as="geometry" />
        </mxCell>
        <mxCell id="2wBlvmX4fhF8oeUSgGbd-354" value="&lt;h5 style=&quot;font-size: 14px;&quot;&gt;BROKER 4&lt;/h5&gt;" style="rounded=0;whiteSpace=wrap;html=1;sketch=1;hachureGap=4;jiggle=2;curveFitting=1;fontFamily=Verdana;fontSize=14;verticalAlign=top;" vertex="1" parent="1">
          <mxGeometry x="395" y="6692" width="510" height="498" as="geometry" />
        </mxCell>
        <mxCell id="2wBlvmX4fhF8oeUSgGbd-355" value="&lt;font face=&quot;Verdana&quot;&gt;TOPIC&lt;/font&gt;" style="whiteSpace=wrap;html=1;sketch=1;hachureGap=4;jiggle=2;curveFitting=1;fontFamily=Architects Daughter;fontSource=https%3A%2F%2Ffonts.googleapis.com%2Fcss%3Ffamily%3DArchitects%2BDaughter;horizontal=1;verticalAlign=top;" vertex="1" parent="1">
          <mxGeometry x="546.5" y="6775.5" width="251.5" height="331" as="geometry" />
        </mxCell>
        <mxCell id="2wBlvmX4fhF8oeUSgGbd-356" value="PARTITION 0" style="rounded=0;whiteSpace=wrap;html=1;sketch=1;hachureGap=4;jiggle=2;curveFitting=1;fontFamily=Verdana;fontSize=14;fillColor=#a20025;fontColor=#ffffff;strokeColor=#6F0000;" vertex="1" parent="1">
          <mxGeometry x="567.5" y="6283" width="209.5" height="49" as="geometry" />
        </mxCell>
        <mxCell id="2wBlvmX4fhF8oeUSgGbd-358" value="PARTITION 1" style="rounded=0;whiteSpace=wrap;html=1;sketch=1;hachureGap=4;jiggle=2;curveFitting=1;fontFamily=Verdana;fontSize=14;fillColor=#008a00;fontColor=#ffffff;strokeColor=#005700;" vertex="1" parent="1">
          <mxGeometry x="567.5" y="6345" width="209.5" height="49" as="geometry" />
        </mxCell>
        <mxCell id="2wBlvmX4fhF8oeUSgGbd-359" value="PARTITION 1" style="rounded=0;whiteSpace=wrap;html=1;sketch=1;hachureGap=4;jiggle=2;curveFitting=1;fontFamily=Verdana;fontSize=14;fillColor=#a20025;fontColor=#ffffff;strokeColor=#6F0000;" vertex="1" parent="1">
          <mxGeometry x="38.5" y="6806" width="209.5" height="49" as="geometry" />
        </mxCell>
        <mxCell id="2wBlvmX4fhF8oeUSgGbd-361" value="PARTITION 2" style="rounded=0;whiteSpace=wrap;html=1;sketch=1;hachureGap=4;jiggle=2;curveFitting=1;fontFamily=Verdana;fontSize=14;fillColor=#008a00;fontColor=#ffffff;strokeColor=#005700;" vertex="1" parent="1">
          <mxGeometry x="35.75" y="6870" width="209.5" height="49" as="geometry" />
        </mxCell>
        <mxCell id="2wBlvmX4fhF8oeUSgGbd-362" value="PARTITION 2" style="rounded=0;whiteSpace=wrap;html=1;sketch=1;hachureGap=4;jiggle=2;curveFitting=1;fontFamily=Verdana;fontSize=14;fillColor=#a20025;fontColor=#ffffff;strokeColor=#6F0000;" vertex="1" parent="1">
          <mxGeometry x="567.5" y="6809" width="209.5" height="49" as="geometry" />
        </mxCell>
        <mxCell id="2wBlvmX4fhF8oeUSgGbd-364" value="PARTITION 3" style="rounded=0;whiteSpace=wrap;html=1;sketch=1;hachureGap=4;jiggle=2;curveFitting=1;fontFamily=Verdana;fontSize=14;fillColor=#008a00;fontColor=#ffffff;strokeColor=#005700;" vertex="1" parent="1">
          <mxGeometry x="567" y="6877" width="209.5" height="49" as="geometry" />
        </mxCell>
        <mxCell id="2wBlvmX4fhF8oeUSgGbd-365" value="PARTITION 3" style="rounded=0;whiteSpace=wrap;html=1;sketch=1;hachureGap=4;jiggle=2;curveFitting=1;fontFamily=Verdana;fontSize=14;fillColor=#a20025;fontColor=#ffffff;strokeColor=#6F0000;" vertex="1" parent="1">
          <mxGeometry x="31.5" y="6350" width="209.5" height="49" as="geometry" />
        </mxCell>
        <mxCell id="2wBlvmX4fhF8oeUSgGbd-367" value="PARTITION 4" style="rounded=0;whiteSpace=wrap;html=1;sketch=1;hachureGap=4;jiggle=2;curveFitting=1;fontFamily=Verdana;fontSize=14;fillColor=#008a00;fontColor=#ffffff;strokeColor=#005700;" vertex="1" parent="1">
          <mxGeometry x="31.5" y="6413" width="209.5" height="49" as="geometry" />
        </mxCell>
        <mxCell id="2wBlvmX4fhF8oeUSgGbd-368" value="PARTITION 4" style="rounded=0;whiteSpace=wrap;html=1;sketch=1;hachureGap=4;jiggle=2;curveFitting=1;fontFamily=Verdana;fontSize=14;fillColor=#a20025;fontColor=#ffffff;strokeColor=#6F0000;" vertex="1" parent="1">
          <mxGeometry x="570" y="6409" width="209.5" height="49" as="geometry" />
        </mxCell>
        <mxCell id="2wBlvmX4fhF8oeUSgGbd-370" value="&lt;h5 style=&quot;font-size: 14px;&quot;&gt;MSG&lt;/h5&gt;" style="rounded=0;whiteSpace=wrap;html=1;sketch=1;hachureGap=4;jiggle=2;curveFitting=1;fontFamily=Verdana;fontSize=14;fillColor=#6a00ff;fontColor=#ffffff;strokeColor=#3700CC;" vertex="1" parent="1">
          <mxGeometry x="26" y="6440" width="33" height="48" as="geometry" />
        </mxCell>
        <mxCell id="2wBlvmX4fhF8oeUSgGbd-371" value="&lt;h5 style=&quot;font-size: 14px;&quot;&gt;MSG&lt;/h5&gt;" style="rounded=0;whiteSpace=wrap;html=1;sketch=1;hachureGap=4;jiggle=2;curveFitting=1;fontFamily=Verdana;fontSize=14;fillColor=#6a00ff;fontColor=#ffffff;strokeColor=#3700CC;" vertex="1" parent="1">
          <mxGeometry x="562" y="6440" width="33" height="48" as="geometry" />
        </mxCell>
        <mxCell id="2wBlvmX4fhF8oeUSgGbd-374" value="ZOOKEEPER" style="whiteSpace=wrap;html=1;sketch=1;hachureGap=4;jiggle=2;curveFitting=1;fontFamily=Architects Daughter;fontSource=https%3A%2F%2Ffonts.googleapis.com%2Fcss%3Ffamily%3DArchitects%2BDaughter;" vertex="1" parent="1">
          <mxGeometry x="-499" y="4947" width="223" height="106" as="geometry" />
        </mxCell>
        <mxCell id="2wBlvmX4fhF8oeUSgGbd-375" value="ZOOKEEPER" style="whiteSpace=wrap;html=1;sketch=1;hachureGap=4;jiggle=2;curveFitting=1;fontFamily=Architects Daughter;fontSource=https%3A%2F%2Ffonts.googleapis.com%2Fcss%3Ffamily%3DArchitects%2BDaughter;" vertex="1" parent="1">
          <mxGeometry x="-499" y="5079" width="223" height="106" as="geometry" />
        </mxCell>
        <mxCell id="2wBlvmX4fhF8oeUSgGbd-376" value="ZOOKEEPER" style="whiteSpace=wrap;html=1;sketch=1;hachureGap=4;jiggle=2;curveFitting=1;fontFamily=Architects Daughter;fontSource=https%3A%2F%2Ffonts.googleapis.com%2Fcss%3Ffamily%3DArchitects%2BDaughter;" vertex="1" parent="1">
          <mxGeometry x="-499" y="5214" width="223" height="106" as="geometry" />
        </mxCell>
        <mxCell id="2wBlvmX4fhF8oeUSgGbd-377" value="at most one - Retry = 0 , ACK = 0&lt;div&gt;at least one - Retry = n, ACK = 1,ALL&lt;/div&gt;&lt;div&gt;Excatly one = enable.idempotence=true&lt;/div&gt;" style="text;html=1;align=center;verticalAlign=middle;resizable=0;points=[];autosize=1;strokeColor=none;fillColor=none;fontSize=20;fontFamily=Verdana;" vertex="1" parent="1">
          <mxGeometry x="-539" y="4029" width="424" height="84" as="geometry" />
        </mxCell>
        <mxCell id="2wBlvmX4fhF8oeUSgGbd-378" style="edgeStyle=none;curved=1;rounded=0;sketch=1;hachureGap=4;jiggle=2;curveFitting=1;orthogonalLoop=1;jettySize=auto;html=1;exitX=1;exitY=0.5;exitDx=0;exitDy=0;fontFamily=Architects Daughter;fontSource=https%3A%2F%2Ffonts.googleapis.com%2Fcss%3Ffamily%3DArchitects%2BDaughter;fontSize=16;startSize=14;endArrow=open;endSize=14;sourcePerimeterSpacing=8;targetPerimeterSpacing=8;" edge="1" parent="1" source="2wBlvmX4fhF8oeUSgGbd-379">
          <mxGeometry relative="1" as="geometry">
            <mxPoint x="215.5" y="-483" as="targetPoint" />
          </mxGeometry>
        </mxCell>
        <mxCell id="2wBlvmX4fhF8oeUSgGbd-379" value="&lt;h5 style=&quot;font-size: 14px;&quot;&gt;APP&lt;/h5&gt;" style="rounded=0;whiteSpace=wrap;html=1;sketch=1;hachureGap=4;jiggle=2;curveFitting=1;fontFamily=Verdana;fillColor=#f0a30a;fontColor=#FFFFFF;strokeColor=#BD7000;fontSize=14;" vertex="1" parent="1">
          <mxGeometry x="-156.5" y="-553" width="155" height="145" as="geometry" />
        </mxCell>
        <mxCell id="2wBlvmX4fhF8oeUSgGbd-380" value="&lt;h5 style=&quot;font-size: 14px;&quot;&gt;APP&lt;/h5&gt;" style="rounded=0;whiteSpace=wrap;html=1;sketch=1;hachureGap=4;jiggle=2;curveFitting=1;fontFamily=Verdana;fillColor=#f0a30a;fontColor=#FFFFFF;strokeColor=#BD7000;fontSize=14;" vertex="1" parent="1">
          <mxGeometry x="215.5" y="-556" width="155" height="145" as="geometry" />
        </mxCell>
        <mxCell id="2wBlvmX4fhF8oeUSgGbd-383" value="&lt;h5 style=&quot;font-size: 14px;&quot;&gt;APP&lt;/h5&gt;" style="rounded=0;whiteSpace=wrap;html=1;sketch=1;hachureGap=4;jiggle=2;curveFitting=1;fontFamily=Verdana;fillColor=#f0a30a;fontColor=#FFFFFF;strokeColor=#BD7000;fontSize=14;" vertex="1" parent="1">
          <mxGeometry x="213.25" y="-713" width="155" height="145" as="geometry" />
        </mxCell>
        <mxCell id="2wBlvmX4fhF8oeUSgGbd-384" value="&lt;h5 style=&quot;font-size: 14px;&quot;&gt;APP&lt;/h5&gt;" style="rounded=0;whiteSpace=wrap;html=1;sketch=1;hachureGap=4;jiggle=2;curveFitting=1;fontFamily=Verdana;fillColor=#f0a30a;fontColor=#FFFFFF;strokeColor=#BD7000;fontSize=14;" vertex="1" parent="1">
          <mxGeometry x="216.5" y="-393" width="155" height="145" as="geometry" />
        </mxCell>
        <mxCell id="2wBlvmX4fhF8oeUSgGbd-385" value="&lt;h5 style=&quot;font-size: 14px;&quot;&gt;APP&lt;/h5&gt;" style="rounded=0;whiteSpace=wrap;html=1;sketch=1;hachureGap=4;jiggle=2;curveFitting=1;fontFamily=Verdana;fillColor=#f0a30a;fontColor=#FFFFFF;strokeColor=#BD7000;fontSize=14;" vertex="1" parent="1">
          <mxGeometry x="211" y="-866" width="155" height="145" as="geometry" />
        </mxCell>
        <mxCell id="2wBlvmX4fhF8oeUSgGbd-386" value="" style="shape=cylinder3;whiteSpace=wrap;html=1;boundedLbl=1;backgroundOutline=1;size=15;sketch=1;hachureGap=4;jiggle=2;curveFitting=1;fontFamily=Architects Daughter;fontSource=https%3A%2F%2Ffonts.googleapis.com%2Fcss%3Ffamily%3DArchitects%2BDaughter;" vertex="1" parent="1">
          <mxGeometry x="409" y="-851" width="60" height="80" as="geometry" />
        </mxCell>
        <mxCell id="2wBlvmX4fhF8oeUSgGbd-387" value="" style="shape=cylinder3;whiteSpace=wrap;html=1;boundedLbl=1;backgroundOutline=1;size=15;sketch=1;hachureGap=4;jiggle=2;curveFitting=1;fontFamily=Architects Daughter;fontSource=https%3A%2F%2Ffonts.googleapis.com%2Fcss%3Ffamily%3DArchitects%2BDaughter;" vertex="1" parent="1">
          <mxGeometry x="413" y="-678" width="60" height="80" as="geometry" />
        </mxCell>
        <mxCell id="2wBlvmX4fhF8oeUSgGbd-388" value="" style="shape=cylinder3;whiteSpace=wrap;html=1;boundedLbl=1;backgroundOutline=1;size=15;sketch=1;hachureGap=4;jiggle=2;curveFitting=1;fontFamily=Architects Daughter;fontSource=https%3A%2F%2Ffonts.googleapis.com%2Fcss%3Ffamily%3DArchitects%2BDaughter;" vertex="1" parent="1">
          <mxGeometry x="405" y="-518" width="60" height="80" as="geometry" />
        </mxCell>
        <mxCell id="2wBlvmX4fhF8oeUSgGbd-389" value="" style="shape=cylinder3;whiteSpace=wrap;html=1;boundedLbl=1;backgroundOutline=1;size=15;sketch=1;hachureGap=4;jiggle=2;curveFitting=1;fontFamily=Architects Daughter;fontSource=https%3A%2F%2Ffonts.googleapis.com%2Fcss%3Ffamily%3DArchitects%2BDaughter;" vertex="1" parent="1">
          <mxGeometry x="413" y="-355" width="60" height="80" as="geometry" />
        </mxCell>
        <mxCell id="2wBlvmX4fhF8oeUSgGbd-390" value="" style="edgeStyle=none;orthogonalLoop=1;jettySize=auto;html=1;rounded=0;sketch=1;hachureGap=4;jiggle=2;curveFitting=1;fontFamily=Architects Daughter;fontSource=https%3A%2F%2Ffonts.googleapis.com%2Fcss%3Ffamily%3DArchitects%2BDaughter;fontSize=16;startSize=14;endArrow=open;endSize=14;sourcePerimeterSpacing=8;targetPerimeterSpacing=8;curved=1;" edge="1" parent="1">
          <mxGeometry width="140" relative="1" as="geometry">
            <mxPoint x="-297" y="-484.27" as="sourcePoint" />
            <mxPoint x="-157" y="-484.27" as="targetPoint" />
            <Array as="points" />
          </mxGeometry>
        </mxCell>
        <mxCell id="2wBlvmX4fhF8oeUSgGbd-391" value="QUEUE" style="rounded=0;whiteSpace=wrap;html=1;sketch=1;hachureGap=4;jiggle=2;curveFitting=1;fontFamily=Architects Daughter;fontSource=https%3A%2F%2Ffonts.googleapis.com%2Fcss%3Ffamily%3DArchitects%2BDaughter;" vertex="1" parent="1">
          <mxGeometry x="-118" y="-1142" width="160" height="80" as="geometry" />
        </mxCell>
        <mxCell id="2wBlvmX4fhF8oeUSgGbd-392" value="&lt;h5 style=&quot;font-size: 14px;&quot;&gt;APP&lt;/h5&gt;" style="rounded=0;whiteSpace=wrap;html=1;sketch=1;hachureGap=4;jiggle=2;curveFitting=1;fontFamily=Verdana;fillColor=#f0a30a;fontColor=#FFFFFF;strokeColor=#BD7000;fontSize=14;" vertex="1" parent="1">
          <mxGeometry x="79" y="-1258" width="155" height="145" as="geometry" />
        </mxCell>
        <mxCell id="2wBlvmX4fhF8oeUSgGbd-393" value="&lt;h5 style=&quot;font-size: 14px;&quot;&gt;APP&lt;/h5&gt;" style="rounded=0;whiteSpace=wrap;html=1;sketch=1;hachureGap=4;jiggle=2;curveFitting=1;fontFamily=Verdana;fillColor=#f0a30a;fontColor=#FFFFFF;strokeColor=#BD7000;fontSize=14;" vertex="1" parent="1">
          <mxGeometry x="79" y="-1094" width="155" height="145" as="geometry" />
        </mxCell>
        <mxCell id="2wBlvmX4fhF8oeUSgGbd-394" value="&lt;h5 style=&quot;font-size: 14px;&quot;&gt;APP&lt;/h5&gt;" style="rounded=0;whiteSpace=wrap;html=1;sketch=1;hachureGap=4;jiggle=2;curveFitting=1;fontFamily=Verdana;fillColor=#f0a30a;fontColor=#FFFFFF;strokeColor=#BD7000;fontSize=14;" vertex="1" parent="1">
          <mxGeometry x="519.5" y="-1369" width="155" height="145" as="geometry" />
        </mxCell>
        <mxCell id="2wBlvmX4fhF8oeUSgGbd-395" value="&lt;h5 style=&quot;font-size: 14px;&quot;&gt;APP&lt;/h5&gt;" style="rounded=0;whiteSpace=wrap;html=1;sketch=1;hachureGap=4;jiggle=2;curveFitting=1;fontFamily=Verdana;fillColor=#f0a30a;fontColor=#FFFFFF;strokeColor=#BD7000;fontSize=14;" vertex="1" parent="1">
          <mxGeometry x="957" y="-1369" width="155" height="145" as="geometry" />
        </mxCell>
        <mxCell id="2wBlvmX4fhF8oeUSgGbd-396" value="QUEUE" style="rounded=0;whiteSpace=wrap;html=1;sketch=1;hachureGap=4;jiggle=2;curveFitting=1;fontFamily=Architects Daughter;fontSource=https%3A%2F%2Ffonts.googleapis.com%2Fcss%3Ffamily%3DArchitects%2BDaughter;" vertex="1" parent="1">
          <mxGeometry x="728" y="-1340" width="160" height="80" as="geometry" />
        </mxCell>
        <mxCell id="2wBlvmX4fhF8oeUSgGbd-397" value="PRODUCER-ID&lt;div&gt;SEQUENCE&lt;/div&gt;" style="whiteSpace=wrap;html=1;sketch=1;hachureGap=4;jiggle=2;curveFitting=1;fontFamily=Architects Daughter;fontSource=https%3A%2F%2Ffonts.googleapis.com%2Fcss%3Ffamily%3DArchitects%2BDaughter;" vertex="1" parent="1">
          <mxGeometry x="-539" y="4115" width="331" height="60" as="geometry" />
        </mxCell>
        <mxCell id="2wBlvmX4fhF8oeUSgGbd-400" style="edgeStyle=none;curved=1;rounded=0;sketch=1;hachureGap=4;jiggle=2;curveFitting=1;orthogonalLoop=1;jettySize=auto;html=1;exitX=1;exitY=0.5;exitDx=0;exitDy=0;entryX=0;entryY=0.5;entryDx=0;entryDy=0;fontFamily=Architects Daughter;fontSource=https%3A%2F%2Ffonts.googleapis.com%2Fcss%3Ffamily%3DArchitects%2BDaughter;fontSize=16;startSize=14;endArrow=open;endSize=14;sourcePerimeterSpacing=8;targetPerimeterSpacing=8;" edge="1" parent="1" source="2wBlvmX4fhF8oeUSgGbd-398" target="2wBlvmX4fhF8oeUSgGbd-399">
          <mxGeometry relative="1" as="geometry" />
        </mxCell>
        <mxCell id="2wBlvmX4fhF8oeUSgGbd-398" value="KAFKA" style="rounded=0;whiteSpace=wrap;html=1;sketch=1;hachureGap=4;jiggle=2;curveFitting=1;fontFamily=Architects Daughter;fontSource=https%3A%2F%2Ffonts.googleapis.com%2Fcss%3Ffamily%3DArchitects%2BDaughter;" vertex="1" parent="1">
          <mxGeometry x="-157" y="7985" width="160" height="195" as="geometry" />
        </mxCell>
        <mxCell id="2wBlvmX4fhF8oeUSgGbd-399" value="APP" style="rounded=0;whiteSpace=wrap;html=1;sketch=1;hachureGap=4;jiggle=2;curveFitting=1;fontFamily=Architects Daughter;fontSource=https%3A%2F%2Ffonts.googleapis.com%2Fcss%3Ffamily%3DArchitects%2BDaughter;" vertex="1" parent="1">
          <mxGeometry x="147.25" y="8095" width="88.5" height="195" as="geometry" />
        </mxCell>
        <mxCell id="2wBlvmX4fhF8oeUSgGbd-401" value="500" style="text;html=1;align=center;verticalAlign=middle;resizable=0;points=[];autosize=1;strokeColor=none;fillColor=none;fontSize=20;fontFamily=Architects Daughter;fontSource=https%3A%2F%2Ffonts.googleapis.com%2Fcss%3Ffamily%3DArchitects%2BDaughter;" vertex="1" parent="1">
          <mxGeometry x="41" y="8144" width="57" height="36" as="geometry" />
        </mxCell>
        <mxCell id="2wBlvmX4fhF8oeUSgGbd-402" value="MAIN THREAD" style="ellipse;whiteSpace=wrap;html=1;sketch=1;hachureGap=4;jiggle=2;curveFitting=1;fontFamily=Architects Daughter;fontSource=https%3A%2F%2Ffonts.googleapis.com%2Fcss%3Ffamily%3DArchitects%2BDaughter;" vertex="1" parent="1">
          <mxGeometry x="255" y="8100" width="99" height="97" as="geometry" />
        </mxCell>
        <mxCell id="2wBlvmX4fhF8oeUSgGbd-403" value="500" style="text;html=1;align=center;verticalAlign=middle;resizable=0;points=[];autosize=1;strokeColor=none;fillColor=none;fontSize=20;fontFamily=Architects Daughter;fontSource=https%3A%2F%2Ffonts.googleapis.com%2Fcss%3Ffamily%3DArchitects%2BDaughter;" vertex="1" parent="1">
          <mxGeometry x="271.5" y="8158" width="57" height="36" as="geometry" />
        </mxCell>
        <mxCell id="2wBlvmX4fhF8oeUSgGbd-404" value="QUEUE" style="whiteSpace=wrap;html=1;sketch=1;hachureGap=4;jiggle=2;curveFitting=1;fontFamily=Architects Daughter;fontSource=https%3A%2F%2Ffonts.googleapis.com%2Fcss%3Ffamily%3DArchitects%2BDaughter;" vertex="1" parent="1">
          <mxGeometry x="368" y="8094" width="54" height="198" as="geometry" />
        </mxCell>
        <mxCell id="2wBlvmX4fhF8oeUSgGbd-405" value="500" style="text;html=1;align=center;verticalAlign=middle;resizable=0;points=[];autosize=1;strokeColor=none;fillColor=none;fontSize=20;fontFamily=Architects Daughter;fontSource=https%3A%2F%2Ffonts.googleapis.com%2Fcss%3Ffamily%3DArchitects%2BDaughter;" vertex="1" parent="1">
          <mxGeometry x="368" y="8146" width="57" height="36" as="geometry" />
        </mxCell>
        <mxCell id="2wBlvmX4fhF8oeUSgGbd-406" value="THREAD" style="ellipse;whiteSpace=wrap;html=1;sketch=1;hachureGap=4;jiggle=2;curveFitting=1;fontFamily=Architects Daughter;fontSource=https%3A%2F%2Ffonts.googleapis.com%2Fcss%3Ffamily%3DArchitects%2BDaughter;" vertex="1" parent="1">
          <mxGeometry x="453.5" y="7989" width="66" height="64" as="geometry" />
        </mxCell>
        <mxCell id="2wBlvmX4fhF8oeUSgGbd-407" value="THREAD" style="ellipse;whiteSpace=wrap;html=1;sketch=1;hachureGap=4;jiggle=2;curveFitting=1;fontFamily=Architects Daughter;fontSource=https%3A%2F%2Ffonts.googleapis.com%2Fcss%3Ffamily%3DArchitects%2BDaughter;" vertex="1" parent="1">
          <mxGeometry x="910" y="8141" width="66" height="64" as="geometry" />
        </mxCell>
        <mxCell id="2wBlvmX4fhF8oeUSgGbd-414" style="edgeStyle=none;curved=1;rounded=0;sketch=1;hachureGap=4;jiggle=2;curveFitting=1;orthogonalLoop=1;jettySize=auto;html=1;exitX=1;exitY=0.5;exitDx=0;exitDy=0;entryX=0;entryY=0.5;entryDx=0;entryDy=0;fontFamily=Architects Daughter;fontSource=https%3A%2F%2Ffonts.googleapis.com%2Fcss%3Ffamily%3DArchitects%2BDaughter;fontSize=16;startSize=14;endArrow=open;endSize=14;sourcePerimeterSpacing=8;targetPerimeterSpacing=8;" edge="1" parent="1" source="2wBlvmX4fhF8oeUSgGbd-408" target="2wBlvmX4fhF8oeUSgGbd-413">
          <mxGeometry relative="1" as="geometry" />
        </mxCell>
        <mxCell id="2wBlvmX4fhF8oeUSgGbd-408" value="THREAD" style="ellipse;whiteSpace=wrap;html=1;sketch=1;hachureGap=4;jiggle=2;curveFitting=1;fontFamily=Architects Daughter;fontSource=https%3A%2F%2Ffonts.googleapis.com%2Fcss%3Ffamily%3DArchitects%2BDaughter;" vertex="1" parent="1">
          <mxGeometry x="540" y="7993" width="66" height="64" as="geometry" />
        </mxCell>
        <mxCell id="2wBlvmX4fhF8oeUSgGbd-409" value="THREAD" style="ellipse;whiteSpace=wrap;html=1;sketch=1;hachureGap=4;jiggle=2;curveFitting=1;fontFamily=Architects Daughter;fontSource=https%3A%2F%2Ffonts.googleapis.com%2Fcss%3Ffamily%3DArchitects%2BDaughter;" vertex="1" parent="1">
          <mxGeometry x="985" y="8141" width="66" height="64" as="geometry" />
        </mxCell>
        <mxCell id="2wBlvmX4fhF8oeUSgGbd-410" value="THREAD" style="ellipse;whiteSpace=wrap;html=1;sketch=1;hachureGap=4;jiggle=2;curveFitting=1;fontFamily=Architects Daughter;fontSource=https%3A%2F%2Ffonts.googleapis.com%2Fcss%3Ffamily%3DArchitects%2BDaughter;" vertex="1" parent="1">
          <mxGeometry x="919" y="8216" width="66" height="64" as="geometry" />
        </mxCell>
        <mxCell id="2wBlvmX4fhF8oeUSgGbd-411" value="THREAD" style="ellipse;whiteSpace=wrap;html=1;sketch=1;hachureGap=4;jiggle=2;curveFitting=1;fontFamily=Architects Daughter;fontSource=https%3A%2F%2Ffonts.googleapis.com%2Fcss%3Ffamily%3DArchitects%2BDaughter;" vertex="1" parent="1">
          <mxGeometry x="1001.5" y="8211" width="66" height="64" as="geometry" />
        </mxCell>
        <mxCell id="2wBlvmX4fhF8oeUSgGbd-420" style="edgeStyle=none;curved=1;rounded=0;sketch=1;hachureGap=4;jiggle=2;curveFitting=1;orthogonalLoop=1;jettySize=auto;html=1;exitX=0.5;exitY=1;exitDx=0;exitDy=0;fontFamily=Architects Daughter;fontSource=https%3A%2F%2Ffonts.googleapis.com%2Fcss%3Ffamily%3DArchitects%2BDaughter;fontSize=16;startSize=14;endArrow=open;endSize=14;sourcePerimeterSpacing=8;targetPerimeterSpacing=8;" edge="1" parent="1" source="2wBlvmX4fhF8oeUSgGbd-413">
          <mxGeometry relative="1" as="geometry">
            <mxPoint x="938" y="8137" as="targetPoint" />
          </mxGeometry>
        </mxCell>
        <mxCell id="2wBlvmX4fhF8oeUSgGbd-413" value="Socket" style="rhombus;whiteSpace=wrap;html=1;sketch=1;hachureGap=4;jiggle=2;curveFitting=1;fontFamily=Architects Daughter;fontSource=https%3A%2F%2Ffonts.googleapis.com%2Fcss%3Ffamily%3DArchitects%2BDaughter;" vertex="1" parent="1">
          <mxGeometry x="855" y="8015" width="102" height="89" as="geometry" />
        </mxCell>
        <mxCell id="2wBlvmX4fhF8oeUSgGbd-415" value="THREAD" style="ellipse;whiteSpace=wrap;html=1;sketch=1;hachureGap=4;jiggle=2;curveFitting=1;fontFamily=Architects Daughter;fontSource=https%3A%2F%2Ffonts.googleapis.com%2Fcss%3Ffamily%3DArchitects%2BDaughter;" vertex="1" parent="1">
          <mxGeometry x="455.5" y="8062" width="66" height="64" as="geometry" />
        </mxCell>
        <mxCell id="2wBlvmX4fhF8oeUSgGbd-416" value="THREAD" style="ellipse;whiteSpace=wrap;html=1;sketch=1;hachureGap=4;jiggle=2;curveFitting=1;fontFamily=Architects Daughter;fontSource=https%3A%2F%2Ffonts.googleapis.com%2Fcss%3Ffamily%3DArchitects%2BDaughter;" vertex="1" parent="1">
          <mxGeometry x="548" y="8065" width="66" height="64" as="geometry" />
        </mxCell>
        <mxCell id="2wBlvmX4fhF8oeUSgGbd-418" value="" style="shape=parallelogram;perimeter=parallelogramPerimeter;whiteSpace=wrap;html=1;fixedSize=1;sketch=1;hachureGap=4;jiggle=2;curveFitting=1;fontFamily=Architects Daughter;fontSource=https%3A%2F%2Ffonts.googleapis.com%2Fcss%3Ffamily%3DArchitects%2BDaughter;" vertex="1" parent="1">
          <mxGeometry x="115.5" y="8319" width="685" height="60" as="geometry" />
        </mxCell>
        <mxCell id="2wBlvmX4fhF8oeUSgGbd-421" style="edgeStyle=none;curved=1;rounded=0;sketch=1;hachureGap=4;jiggle=2;curveFitting=1;orthogonalLoop=1;jettySize=auto;html=1;exitX=0.5;exitY=1;exitDx=0;exitDy=0;entryX=1;entryY=0.5;entryDx=0;entryDy=0;fontFamily=Architects Daughter;fontSource=https%3A%2F%2Ffonts.googleapis.com%2Fcss%3Ffamily%3DArchitects%2BDaughter;fontSize=16;startSize=14;endArrow=open;endSize=14;sourcePerimeterSpacing=8;targetPerimeterSpacing=8;" edge="1" parent="1" target="2wBlvmX4fhF8oeUSgGbd-418">
          <mxGeometry relative="1" as="geometry">
            <mxPoint x="917" y="8193.999999999998" as="sourcePoint" />
          </mxGeometry>
        </mxCell>
      </root>
    </mxGraphModel>
  </diagram>
</mxfile>
